<svg width="64" height="85" viewBox="0 0 64 85" fill="none" xmlns="http://www.w3.org/2000/svg">
<g clip-path="url(#clip0_253_626)">
<path fill-rule="evenodd" clip-rule="evenodd" d="M49.4409 53.5222L53.4432 54.6018C59.2985 56.1853 63.375 61.4156 63.375 67.3177V82.025C63.375 83.6085 62.0409 84.904 60.4103 84.904H37.1374L37.0879 85L36.8656 84.904H3.33971C1.70912 84.904 0.375 83.6085 0.375 82.025V67.3417C0.375 61.4156 4.47618 56.1853 10.3315 54.6258L15.0997 53.3542C15.0503 52.9464 15.1244 52.4905 15.2726 52.0826C15.6679 51.051 16.6068 50.3312 17.7185 50.2113L20.0162 49.9473C20.4609 49.8274 20.9056 50.0193 21.1279 50.4032V44.669C17.3726 41.79 14.8279 37.4954 14.3585 32.6249H13.7903C11.1962 32.6249 9.09618 30.5856 9.09618 28.0664V27.5866C9.09618 25.8111 10.2574 24.2996 11.8879 23.7478H11.7891V21.8284V13.959C11.7891 12.7834 12.2585 11.6797 13.0244 10.84C11.2209 9.40046 10.2821 8.05689 10.1091 7.52906C10.0103 7.24116 10.0597 6.90527 10.2326 6.64135C10.5514 6.16514 11.0405 6.11427 11.724 6.04318L11.7397 6.04155L11.7437 6.04117C12.51 5.96915 13.7931 5.84857 15.4209 5.2498C16.8785 4.72197 18.3856 4.09817 19.8432 3.47438C20.2328 3.31676 20.6155 3.15914 20.9887 3.00544C22.0357 2.57425 23.0078 2.17389 23.8456 1.89089C26.0691 1.12314 27.8726 0.6193 30.5903 0.283408C30.6392 0.277631 30.6876 0.271905 30.7356 0.266234C32.4799 0.0599636 33.6066 -0.0732655 35.4821 0.0434859C36.8656 0.115463 37.7303 0.187439 39.1385 0.547323L39.5091 0.643292C40.695 0.931199 41.6091 1.17112 42.795 2.01085C42.9606 2.13145 43.1088 2.25204 43.2397 2.35853C43.2651 2.37916 43.2898 2.39925 43.3138 2.41872C48.6009 2.73062 52.8256 7.00124 52.7515 12.2315V23.7238H52.6774C54.3574 24.2756 55.5432 25.7872 55.5432 27.5866V28.0664C55.5432 30.5856 53.4432 32.6249 50.8491 32.6249H50.2809C49.7868 37.4954 47.2421 41.79 43.5115 44.669V49.9473C43.6597 49.8994 43.8079 49.8994 43.9562 49.9233V49.8994L46.7726 50.1393C47.9585 50.2352 48.9221 50.979 49.3174 52.0826C49.4903 52.5625 49.515 53.0423 49.4409 53.5222ZM16.0632 7.04922C14.6797 7.55306 13.4938 7.74499 12.6538 7.86496C13.0985 8.36879 13.7656 9.01658 14.655 9.68837C14.655 9.68837 14.6797 9.66437 14.7044 9.66437L14.7538 9.76034C15.1491 10.0482 15.5444 10.3362 16.0138 10.6241L17.0268 11.2479C18.3115 12.0396 18.3115 12.0396 19.0279 12.3755C19.3244 12.4955 19.695 12.6634 20.2632 12.9513C22.8326 14.1989 24.5374 14.4868 27.4279 14.6548C30.615 14.8467 32.5174 14.6308 35.3338 14.0789C38.4715 13.4791 42.9926 12.2076 43.0421 12.1836C43.5362 12.0396 43.7832 12.1836 44.2279 12.7354C44.8703 13.4312 46.2538 15.0626 47.0691 17.03C47.4891 18.0137 47.7115 19.1893 47.7609 20.5089C47.7856 21.1567 48.2797 21.8284 48.9715 21.8284V21.8044H50.7997V12.2076C50.7997 8.70468 48.4279 5.72965 45.1915 4.69798C45.8871 5.71125 46.2958 6.79882 46.4008 7.0782C46.4151 7.11634 46.4238 7.13942 46.4268 7.14519C46.5997 7.64902 46.3279 8.20085 45.8091 8.36879C45.2903 8.53674 44.7221 8.27282 44.5491 7.76899C44.5491 7.74499 44.1291 6.59337 43.4374 5.60968L43.3632 5.51372C43.3205 5.45627 43.2791 5.40041 43.2388 5.34601C42.6728 4.58265 42.3208 4.10786 41.5597 3.57034C40.7134 2.95985 40.0565 2.78597 39.0099 2.50896L38.9409 2.49069L38.5703 2.39473C37.335 2.05883 36.6432 2.01085 35.3091 1.93887C33.5797 1.8429 32.5668 1.96286 30.8126 2.1788C28.2432 2.49069 26.6126 2.97054 24.4632 3.69031C23.4465 4.02692 22.1919 4.55245 20.8613 5.10983C20.7694 5.14836 20.677 5.18703 20.5844 5.22581C20.5311 5.24825 20.4777 5.27072 20.4242 5.29322C18.9919 5.89609 17.5161 6.51725 16.0632 7.04922ZM17.0021 20.8927V13.4791C16.8561 13.3941 16.693 13.2923 16.4871 13.164C16.3444 13.075 16.1813 12.9732 15.9891 12.8553L14.9762 12.2315C14.9144 12.1956 14.8588 12.1596 14.8032 12.1236C14.7476 12.0876 14.6921 12.0516 14.6303 12.0156C14.1115 12.5194 13.7903 13.2152 13.7903 13.983V21.8524H16.0138C16.5574 21.8524 17.0021 21.4206 17.0021 20.8927ZM16.2609 29.506V30.9455C16.2609 39.5347 23.475 46.5404 32.3197 46.5404C41.1644 46.5404 48.3785 39.5347 48.3785 30.9455V29.506C48.3785 28.9781 48.8232 28.5463 49.3668 28.5463C49.9103 28.5463 50.355 28.9781 50.355 29.506V30.7056H50.8491C52.3562 30.7056 53.5668 29.5299 53.5668 28.0664V27.5866C53.5668 26.387 52.5785 25.4273 51.3432 25.4273C50.7997 25.4273 50.355 24.9954 50.355 24.4676C50.355 24.1557 50.5032 23.8918 50.7256 23.7238H48.8974C47.1926 23.7238 45.7597 22.3083 45.7103 20.5568C45.6609 19.4532 45.4879 18.4935 45.1668 17.7258C44.5491 16.1903 43.4621 14.8707 42.8691 14.1989C41.4856 14.5828 38.1997 15.4705 35.6797 15.9503C33.4068 16.4062 31.6774 16.6461 29.4785 16.6461C28.8115 16.6461 28.0703 16.6221 27.2797 16.5741C24.2656 16.4062 22.215 16.0463 19.3738 14.6788C19.2885 14.6235 19.2032 14.5842 19.1226 14.547C19.0631 14.5196 19.0063 14.4934 18.9538 14.4628V20.8687C18.9538 22.4522 17.6197 23.7478 15.9891 23.7478H13.9385C14.1609 23.9158 14.2844 24.1797 14.2844 24.4676C14.2844 24.9954 13.8397 25.4273 13.2962 25.4273C12.0609 25.4273 11.0726 26.387 11.0726 27.5866V28.0664C11.0726 29.5299 12.2832 30.7056 13.7903 30.7056H14.2844V29.506C14.2844 28.9781 14.7291 28.5463 15.2726 28.5463C15.8162 28.5463 16.2609 28.9781 16.2609 29.506ZM23.1044 54.3379C25.3279 56.9051 28.5891 58.4406 32.0974 58.4406C35.8279 58.4406 39.3115 56.6892 41.535 53.7861V45.9886C38.8421 47.5481 35.6797 48.4598 32.3197 48.4598C28.9597 48.4598 25.7974 47.5481 23.1044 45.9886V54.3379ZM33.1844 79.3378L40.5715 57.265C38.2244 59.2083 35.2597 60.36 32.0726 60.36C28.8856 60.36 25.9456 59.2563 23.5738 57.3369L31.3068 79.3618C31.5044 79.9616 32.0726 80.0096 32.2456 80.0096C32.4185 80.0096 32.9868 79.9376 33.1844 79.3378ZM2.35147 82.025C2.35147 82.5528 2.79618 82.9846 3.33971 82.9846H26.4397L21.3997 73.5077V78.4261C21.3997 79.4818 20.5103 80.3455 19.4232 80.3455H7.81147C6.72441 80.3455 5.835 79.4818 5.835 78.4261V71.9482C5.835 70.8926 6.72441 70.0288 7.81147 70.0288H12.6785V68.6133C12.6785 68.0855 13.1232 67.6536 13.6668 67.6536C14.2103 67.6536 14.655 68.0855 14.655 68.6133V70.0288H19.4232H19.5468L15.7174 62.8312C15.1244 61.7035 15.3468 60.36 16.2609 59.4723L17.595 58.1767C17.9656 57.8168 17.9903 57.241 17.6197 56.8571L15.9644 55.1057L10.875 56.4732C5.85971 57.8168 2.35147 62.2794 2.35147 67.3417V82.025ZM19.4232 78.4261V71.9482H7.81147V78.4261H19.4232ZM28.6385 82.9127H35.8774L46.6244 61.7755C46.7974 61.4156 46.7232 60.9598 46.4268 60.6719L45.1915 59.4723C44.6232 58.9204 44.3021 58.1767 44.3268 57.3849C44.3515 56.5932 44.6974 55.8494 45.2903 55.3216L47.1432 53.6661C47.5879 53.2823 47.4644 52.8024 47.415 52.6585C47.3656 52.5145 47.1679 52.0587 46.575 52.0107L44.4256 51.8427L44.0056 53.0903L44.0303 53.1143C44.0056 53.1383 43.9809 53.1863 43.9562 53.2343L35.0374 79.9137C34.6421 81.1133 33.555 81.905 32.2456 81.905H32.2209C30.9115 81.905 29.8244 81.1612 29.4044 79.9616L19.8679 52.7544L19.5715 51.9147L17.9409 52.1066C17.5703 52.1546 17.2491 52.3945 17.1256 52.7304C17.0021 53.0663 17.0762 53.4502 17.2985 53.6661L19.0279 55.4895C20.115 56.6172 20.0903 58.3686 18.9538 59.4723L17.6197 60.7678C17.3232 61.0797 17.2491 61.5116 17.4468 61.8955L28.6385 82.9127ZM61.3985 82.025H61.4232V67.3417C61.4232 62.3033 57.915 57.8168 52.9244 56.4732L48.4032 55.2496L46.6738 56.7851C46.4762 56.9771 46.3526 57.217 46.3526 57.4809C46.3526 57.7448 46.4515 57.9847 46.6491 58.1767L47.8844 59.3763C48.7985 60.24 49.0209 61.5836 48.4526 62.6872L38.1256 82.9846H60.4103C60.9538 82.9846 61.3985 82.5528 61.3985 82.025ZM28.9219 21.9744C28.9219 21.4432 28.4789 21.0085 27.9375 21.0085H23.2617C22.7203 21.0085 22.2773 21.4432 22.2773 21.9744C22.2773 22.5057 22.7203 22.9403 23.2617 22.9403H27.9375C28.4789 22.9403 28.9219 22.5057 28.9219 21.9744ZM36.5508 22.9403H41.2266C41.768 22.9403 42.2109 22.5057 42.2109 21.9744C42.2109 21.4432 41.768 21.0085 41.2266 21.0085H36.5508C36.0094 21.0085 35.5664 21.4432 35.5664 21.9744C35.5664 22.5057 36.0094 22.9403 36.5508 22.9403ZM40.2422 27.4077C40.2422 28.1412 39.6362 28.7358 38.8887 28.7358C38.1411 28.7358 37.5352 28.1412 37.5352 27.4077C37.5352 26.6742 38.1411 26.0796 38.8887 26.0796C39.6362 26.0796 40.2422 26.6742 40.2422 27.4077ZM26.9531 27.4077C26.9531 26.6832 26.3379 26.0796 25.5996 26.0796C24.8613 26.0796 24.2461 26.6832 24.2461 27.4077C24.2461 28.1321 24.8613 28.7358 25.5996 28.7358C26.3379 28.7358 26.9531 28.1321 26.9531 27.4077ZM38.2929 34.6808C38.7607 34.9462 38.9084 35.5493 38.613 36.0077C37.2341 38.2513 34.7966 39.6023 32.1127 39.6023C29.4289 39.6023 26.9913 38.2513 25.6125 36.0077C25.3417 35.5493 25.4894 34.9703 25.9326 34.6808C26.4004 34.4154 26.9913 34.5602 27.2868 34.9944C28.3209 36.659 30.1184 37.6482 32.1127 37.6482C34.1071 37.6482 35.9045 36.659 36.9387 34.9944C37.2095 34.5361 37.8251 34.3913 38.2929 34.6808ZM56.9766 70.9943H54.2695V68.3381C54.2695 67.8068 53.8266 67.3721 53.2852 67.3721C52.7438 67.3721 52.3008 67.8068 52.3008 68.3381V70.9943H49.5938C49.0523 70.9943 48.6094 71.429 48.6094 71.9602C48.6094 72.4915 49.0523 72.9261 49.5938 72.9261H52.3008V75.5824C52.3008 76.1136 52.7438 76.5483 53.2852 76.5483C53.8266 76.5483 54.2695 76.1136 54.2695 75.5824V72.9261H56.9766C57.518 72.9261 57.9609 72.4915 57.9609 71.9602C57.9609 71.429 57.518 70.9943 56.9766 70.9943Z" fill="white"/>
</g>
<defs>
<clipPath id="clip0_253_626">
<rect width="63" height="85" fill="white" transform="translate(0.375)"/>
</clipPath>
</defs>
</svg>
