<svg width="84" height="71" viewBox="0 0 84 71" fill="none" xmlns="http://www.w3.org/2000/svg">
<g clip-path="url(#clip0_253_633)">
<path fill-rule="evenodd" clip-rule="evenodd" d="M79.8594 0H3.39057C1.59451 0 0.125 1.26118 0.125 2.80263V62.5921C0.125 64.1336 1.59451 65.3947 3.39057 65.3947H8.28893V68.1974C8.28893 69.7388 9.75844 71 11.5545 71H17.8135C19.6096 71 21.0791 69.7388 21.0791 68.1974V65.3947H62.1709V68.1974C62.1709 69.7388 63.6404 71 65.4365 71H71.6955C73.4916 71 74.9611 69.7388 74.9611 68.1974V65.3947H79.8594C81.6555 65.3947 83.125 64.1336 83.125 62.5921V2.80263C83.125 1.26118 81.6555 0 79.8594 0ZM80.948 62.5921C80.948 63.1059 80.4581 63.5263 79.8594 63.5263H73.8725C73.2738 63.5263 72.784 63.9467 72.784 64.4605V68.1974C72.784 68.7112 72.2942 69.1316 71.6955 69.1316H65.4365C64.8378 69.1316 64.348 68.7112 64.348 68.1974V64.4605C64.348 63.9467 63.8581 63.5263 63.2594 63.5263H19.9906C19.3919 63.5263 18.902 63.9467 18.902 64.4605V68.1974C18.902 68.7112 18.4122 69.1316 17.8135 69.1316H11.5545C10.9558 69.1316 10.466 68.7112 10.466 68.1974V64.4605C10.466 63.9467 9.97615 63.5263 9.37746 63.5263H3.39057C2.79189 63.5263 2.30205 63.1059 2.30205 62.5921V2.80263C2.30205 2.28882 2.79189 1.86842 3.39057 1.86842H79.8594C80.4581 1.86842 80.948 2.28882 80.948 2.80263V62.5921ZM40.6036 36.388C40.8212 36.5745 41.0932 36.6678 41.3652 36.6678C41.6372 36.6678 41.9092 36.5745 42.1268 36.4113L54.9109 25.7348C58.6102 22.6344 58.6918 17.5059 55.0469 14.289C53.2789 12.7504 50.9125 11.8646 48.41 11.8413C45.8804 11.818 43.514 12.6339 41.7188 14.1258C39.9779 12.5873 37.6115 11.7248 35.1091 11.6781C32.5795 11.6548 30.1858 12.4474 28.3906 13.9626C24.637 17.063 24.5554 22.2148 28.173 25.4084L40.6036 36.388ZM29.8866 15.338C31.2739 14.1724 33.1235 13.543 35.0547 13.5897C36.9859 13.613 38.8083 14.289 40.1684 15.4779L40.6852 15.9441L40.6852 15.9441C40.7396 16.014 40.794 16.084 40.8756 16.1539C41.2836 16.5269 41.9908 16.5269 42.426 16.1772L43.2148 15.5012C44.5748 14.3589 46.37 13.7295 48.3012 13.7295H48.3828C50.3141 13.7528 52.1365 14.4289 53.4965 15.6177C56.2981 18.0654 56.2437 22.0283 53.3605 24.4294L41.3652 34.4532L29.7234 24.1496C26.9218 21.6786 27.0034 17.7157 29.8866 15.338ZM7.76149 4.67105H75.4885C76.6853 4.67105 77.6645 5.51184 77.6645 6.53947V58.8553C77.6645 59.8829 76.6853 60.7237 75.4885 60.7237H7.76149C6.56471 60.7237 5.58553 59.8829 5.58553 58.8553V6.53947C5.58553 5.51184 6.56471 4.67105 7.76149 4.67105ZM7.76149 58.8553H75.4885V49.6533H58.516C57.8904 49.6533 57.3192 49.3263 57.0472 48.8359L51.6889 38.9099L45.7321 53.4368C45.4873 53.9974 44.8618 54.3711 44.1818 54.3711H44.1546C43.4746 54.3711 42.849 53.974 42.6314 53.4135L40.1018 46.8507H34.4715C33.8187 46.8507 33.2203 46.5237 32.9755 46.0099L29.358 38.7697L24.1901 48.8125C23.9181 49.3263 23.3469 49.6533 22.6941 49.6533H7.76149V58.8553ZM58.8424 47.7849H75.4885V6.53947H7.76149V47.7849H22.2861L27.8348 37.0415C28.1068 36.5276 28.678 36.2007 29.3308 36.2007C29.9836 36.2007 30.582 36.5276 30.8268 37.0415L34.7979 44.9822H40.4826C41.1898 44.9822 41.8154 45.3559 42.033 45.9398L44.1818 51.5217L50.0569 37.2049C50.2745 36.6678 50.8457 36.2941 51.5257 36.2707C52.1784 36.2474 52.804 36.5743 53.076 37.0882L58.8424 47.7849Z" fill="white"/>
</g>
<defs>
<clipPath id="clip0_253_633">
<rect width="83" height="71" fill="white" transform="translate(0.125)"/>
</clipPath>
</defs>
</svg>
