<svg width="80" height="73" viewBox="0 0 80 73" fill="none" xmlns="http://www.w3.org/2000/svg">
<g clip-path="url(#clip0_253_647)">
<path fill-rule="evenodd" clip-rule="evenodd" d="M70.7895 5.98361H62.2138V4.54754C62.2138 2.17803 60.1089 0.239344 57.5362 0.239344C54.9635 0.239344 52.8586 2.17803 52.8586 4.54754V5.98361H44.8026V4.54754C44.8026 2.17803 42.6977 0.239344 40.125 0.239344C37.5523 0.239344 35.4474 2.17803 35.4474 4.54754V5.98361H27.3914V4.3082C27.3914 1.93869 25.2865 0 22.7138 0C20.1411 0 18.0362 1.93869 18.0362 4.3082V5.98361H9.46053C4.60099 5.98361 0.625 9.64557 0.625 14.1213V23.2164V23.4557V25.1311V70.1279C0.625 71.7075 2.02829 73 3.74342 73H76.5066C78.2217 73 79.625 71.7075 79.625 70.1279V25.1311V23.4557V23.2164V14.1213C79.625 9.64557 75.649 5.98361 70.7895 5.98361ZM54.9375 4.54754C54.9375 3.23115 56.1069 2.1541 57.5362 2.1541C58.9655 2.1541 60.1349 3.23115 60.1349 4.54754V12.2066C60.1349 13.523 58.9655 14.6 57.5362 14.6C56.1069 14.6 54.9375 13.523 54.9375 12.2066V4.54754ZM37.5263 4.54754C37.5263 3.23115 38.6957 2.1541 40.125 2.1541C41.5543 2.1541 42.7237 3.23115 42.7237 4.54754V12.2066C42.7237 13.523 41.5543 14.6 40.125 14.6C38.6957 14.6 37.5263 13.523 37.5263 12.2066V4.54754ZM20.1151 4.3082C20.1151 2.9918 21.2845 1.91475 22.7138 1.91475C24.1431 1.91475 25.3125 2.9918 25.3125 4.3082V11.9672C25.3125 13.2836 24.1431 14.3607 22.7138 14.3607C21.2845 14.3607 20.1151 13.2836 20.1151 11.9672V4.3082ZM77.5461 70.1279C77.5461 70.6544 77.0783 71.0853 76.5066 71.0853H3.74342C3.17171 71.0853 2.70395 70.6544 2.70395 70.1279V25.1311H77.5461V70.1279ZM77.5461 23.2164H2.70395V14.1213C2.70395 10.6987 5.74441 7.89836 9.46053 7.89836H18.0362V11.9672C18.0362 14.3367 20.1411 16.2754 22.7138 16.2754C25.2865 16.2754 27.3914 14.3367 27.3914 11.9672V7.89836H35.4474V12.2066C35.4474 14.5761 37.5523 16.5148 40.125 16.5148C42.6977 16.5148 44.8026 14.5761 44.8026 12.2066V7.89836H52.8586V12.2066C52.8586 14.5761 54.9635 16.5148 57.5362 16.5148C60.1089 16.5148 62.2138 14.5761 62.2138 12.2066V7.89836H70.7895C74.5056 7.89836 77.5461 10.6987 77.5461 14.1213V23.2164ZM39.9951 66.7566C50.9615 66.7566 59.875 58.5201 59.875 48.3865C59.875 38.253 50.9615 30.0164 39.9951 30.0164C29.0286 30.0164 20.1151 38.253 20.1151 48.3865C20.1151 58.5201 29.0286 66.7566 39.9951 66.7566ZM39.9951 31.9375C49.8181 31.9375 57.7961 39.3095 57.7961 48.3865C57.7961 57.4635 49.8181 64.8355 39.9951 64.8355C30.172 64.8355 22.1941 57.4635 22.1941 48.3865C22.1941 39.3095 30.172 31.9375 39.9951 31.9375ZM35.4474 52.5888H31.8092C29.3664 52.5888 27.3914 50.7638 27.3914 48.5066C27.3914 46.2493 29.3664 44.4243 31.8092 44.4243H35.4474V40.8224C35.4474 38.5651 37.4224 36.7401 39.8651 36.7401C42.3079 36.7401 44.2829 38.5651 44.2829 40.8224V44.4243H48.1809C50.5977 44.4243 52.5727 46.2734 52.5987 48.5066C52.5987 50.7638 50.6237 52.5888 48.1809 52.5888H44.2829V55.9507C44.2829 58.2079 42.3079 60.0329 39.8651 60.0329C37.4224 60.0329 35.4474 58.2079 35.4474 55.9507V52.5888ZM36.4868 46.3454H31.8092C30.5099 46.3454 29.4704 47.3299 29.4704 48.5066C29.4704 49.7072 30.5359 50.6678 31.8092 50.6678H36.4868C37.0586 50.6678 37.5263 51.1 37.5263 51.6283V51.6763V51.7484V55.9507C37.5263 57.1513 38.5918 58.1118 39.8651 58.1118C41.1645 58.1118 42.2039 57.1273 42.2039 55.9507V51.6283C42.2039 51.3641 42.3339 51.124 42.5158 50.9559C42.6977 50.7638 42.9576 50.6678 43.2434 50.6678H48.1809C49.4543 50.6678 50.4937 49.7072 50.5197 48.5066C50.5197 47.3059 49.4543 46.3454 48.1809 46.3454H43.2434C42.6717 46.3454 42.2039 45.9132 42.2039 45.3849V40.8224C42.2039 39.6217 41.1385 38.6612 39.8651 38.6612C38.5658 38.6612 37.5263 39.6457 37.5263 40.8224V45.3849C37.5263 45.649 37.3964 45.8891 37.2145 46.0572C37.0326 46.2493 36.7727 46.3454 36.4868 46.3454Z" fill="white"/>
</g>
<defs>
<clipPath id="clip0_253_647">
<rect width="79" height="73" fill="white" transform="translate(0.625)"/>
</clipPath>
</defs>
</svg>
