<svg width="81" height="77" viewBox="0 0 81 77" fill="none" xmlns="http://www.w3.org/2000/svg">
<g clip-path="url(#clip0_253_640)">
<path fill-rule="evenodd" clip-rule="evenodd" d="M40.2434 38.7533C51.3487 38.7533 60.375 30.0655 60.375 19.3766C60.375 8.68783 51.3487 0 40.2434 0C29.1382 0 20.1118 8.68783 20.1118 19.3766C20.1118 30.0655 29.1382 38.7533 40.2434 38.7533ZM40.2434 2.02632C50.1908 2.02632 58.2697 9.8023 58.2697 19.3766C58.2697 28.951 50.1908 36.727 40.2434 36.727C30.2961 36.727 22.2171 28.951 22.2171 19.3766C22.2171 9.8023 30.2961 2.02632 40.2434 2.02632ZM79.9964 58.8777C79.4179 57.3612 78.2609 56.148 76.7358 55.4655C75.2107 54.7831 73.5015 54.7073 71.8975 55.2633L59.6178 59.5854C59.907 58.903 60.0648 58.1447 60.0648 57.3359C60.0648 53.9996 57.2249 51.2699 53.754 51.2699H43.0256C42.973 51.2699 42.9204 51.2699 42.8415 51.2446C42.8002 51.2371 42.743 51.227 42.6711 51.2142L42.5533 51.1934L42.5531 51.1933C40.9248 50.905 34.2774 49.7278 31.0613 48.7676C25.4342 47.0742 19.0708 49.1467 16.415 50.183C16.3624 49.1215 15.4421 48.2621 14.3114 48.2621H2.4786C1.32162 48.2621 0.375 49.172 0.375 50.2841V70.757C0.375 71.8691 1.32162 72.779 2.4786 72.779H14.3114C15.4684 72.779 16.415 71.8691 16.415 70.757V70.5548C17.4405 70.6559 25.8023 71.5658 32.7179 75.2307C34.9267 76.3934 37.6614 77 40.8431 77C42.4208 77 44.1037 76.8483 45.918 76.5703C49.9445 75.9211 53.0984 74.7539 53.5037 74.6039L53.5173 74.5989L76.2362 66.5866C79.4968 65.4998 81.1797 62.0118 79.9964 58.8777ZM14.3114 70.757H2.4786V50.2841H14.3114V70.757ZM75.5 64.691L52.8336 72.7032L52.7547 72.7285C52.2814 72.9054 40.7642 77.2022 33.7434 73.4867C26.0127 69.3922 16.8883 68.5834 16.4939 68.5581H16.415V52.4072C17.9401 51.7501 24.7768 49.0204 30.4302 50.6885C33.9538 51.7501 41.0797 52.9886 42.4734 53.216C42.6574 53.2413 42.8415 53.2666 43.0256 53.2666H53.754C56.0679 53.2666 57.9612 55.0864 57.9612 57.3106C57.9612 59.5348 56.0679 61.3547 53.754 61.3547H36.6622C36.0837 61.3547 35.6104 61.8096 35.6104 62.3657C35.6104 62.9217 36.0837 63.3767 36.6622 63.3767H53.754C54.5691 63.3767 55.358 63.225 56.0679 62.947L72.6075 57.1084C73.6593 56.7293 74.8163 56.7798 75.8155 57.2348C76.841 57.6898 77.6036 58.4986 77.998 59.5096C78.7868 61.6074 77.6824 63.9327 75.5 64.691ZM35.8054 23.6572H31.9448C29.5025 23.6572 27.5328 21.7322 27.4803 19.402C27.4803 17.0211 29.5025 15.1214 31.9186 15.1214H35.7529V11.1194C35.7529 8.73849 37.775 6.83882 40.1912 6.83882C42.6598 6.83882 44.6295 8.78915 44.6295 11.1194V15.0961H48.8314C51.2475 15.0961 53.2172 17.0211 53.2697 19.3766C53.2697 21.7576 51.2475 23.6572 48.8314 23.6572H44.682V27.3806C44.682 29.7615 42.6598 31.6612 40.2437 31.6612C37.775 31.6612 35.8054 29.7109 35.8054 27.3806V23.6572ZM36.7508 16.8944H31.9448C30.5267 16.8944 29.3974 18.0089 29.3974 19.326C29.3974 20.6938 30.5529 21.7829 31.9448 21.7829H36.7246C37.2498 21.7829 37.67 22.1882 37.67 22.6947V22.7707V22.8467V27.3806C37.67 28.7484 38.8255 29.8375 40.2174 29.8375C41.6356 29.8375 42.7649 28.723 42.7649 27.3806V22.7454C42.7649 22.4921 42.8962 22.2641 43.0537 22.1122C43.2113 21.9349 43.4477 21.8336 43.7103 21.8336H48.8052C50.1971 21.8336 51.3263 20.7444 51.3789 19.3513C51.3789 17.9836 50.2233 16.8944 48.8314 16.8944H43.7366C43.2113 16.8944 42.7911 16.4891 42.7911 15.9826V11.0688C42.7911 9.70099 41.6356 8.61184 40.2437 8.61184C38.8255 8.61184 37.6963 9.72632 37.6963 11.0688V15.9826C37.6963 16.2359 37.5649 16.4638 37.4074 16.6158C37.2498 16.7931 37.0134 16.8944 36.7508 16.8944Z" fill="white"/>
</g>
<defs>
<clipPath id="clip0_253_640">
<rect width="80" height="77" fill="white" transform="translate(0.375)"/>
</clipPath>
</defs>
</svg>
