<svg width="512" height="512" viewBox="0 0 512 512" fill="none" xmlns="http://www.w3.org/2000/svg">
<g clip-path="url(#clip0_2670_4380)">
<path d="M75.6589 174.054C72.0229 176.914 71.2449 180.655 69.5149 203.594C67.4119 231.486 67.4159 231.57 70.9229 235.077L73.8459 238H100.701C129.197 238 130.425 237.812 132.974 233.048C134.47 230.253 138.121 181.449 137.046 178.621C136.553 177.324 134.93 175.304 133.44 174.131C130.831 172.079 129.755 172 104.5 172C79.5559 172 78.1419 172.101 75.6589 174.054ZM168.997 174.85C165.593 178.253 165.464 178.952 163.522 204.594C161.45 231.949 161.433 231.587 164.923 235.077L167.846 238H194.701C223.281 238 224.419 237.823 227.021 232.962C228.586 230.036 232.204 181.667 231.079 178.707C230.568 177.363 228.93 175.304 227.44 174.131C224.83 172.078 223.759 172 198.288 172H171.846L168.997 174.85ZM265.308 173.01C260.535 174.932 259.749 177.929 257.877 201.343C255.426 231.994 255.412 231.566 258.923 235.077L261.846 238H288.701C317.281 238 318.419 237.823 321.021 232.962C322.586 230.036 326.204 181.667 325.079 178.707C324.568 177.363 322.93 175.304 321.44 174.131C318.83 172.078 317.792 172.002 293.115 172.063C279.027 172.098 266.514 172.524 265.308 173.01ZM85.9999 187.946C85.9999 187.386 93.4109 187 104.144 187H122.288L121.653 194.75C121.304 199.012 120.722 207.113 120.359 212.75L119.699 223H101.369H83.0379L83.5219 218.75C84.0079 214.486 85.9999 189.719 85.9999 187.946ZM180 188.446C180 187.238 182.968 187 198 187C216 187 216 187 216.001 189.25C216.002 190.488 215.473 198.588 214.826 207.25L213.65 223H195.42H177.19L177.597 219.25C178.122 214.399 180 190.331 180 188.446ZM273.939 189.25C274 187.002 274.018 187 292 187C310 187 310 187 310.001 189.25C310.002 190.488 309.473 198.588 308.826 207.25L307.65 223H289.543H271.436L272.657 207.25C273.328 198.588 273.905 190.488 273.939 189.25ZM363.455 195.455C360.305 198.604 360.246 202.943 363.314 205.826C365.578 207.952 366.25 208 393.88 208C411.882 208 422.851 207.615 424.114 206.939C428.91 204.372 428.459 196.441 423.385 194.13C421.735 193.378 411.715 193 393.407 193H365.909L363.455 195.455ZM360.364 246.146C358.232 247.202 356 250.918 356 253.412C356 254.137 356.933 255.916 358.073 257.365L360.145 260H389.398H418.651L420.826 257.686C423.509 254.829 423.612 250.978 421.09 247.861L419.179 245.5L390.84 245.294C372.517 245.161 361.745 245.463 360.364 246.146ZM68.3999 269.4C66.5299 271.27 64.9879 273.632 64.9729 274.65C64.9579 275.668 64.1049 287.031 63.0779 299.902C61.7959 315.956 61.5139 324.177 62.1799 326.086C64.1639 331.779 65.3819 332 94.7779 332H121.626L124.431 329.072C126.81 326.589 127.355 324.954 128.011 318.322C129.83 299.927 131.248 275.123 130.623 272.633C130.246 271.13 128.52 269.069 126.723 267.973C123.739 266.153 121.584 266.007 97.6499 266.004L71.7999 266L68.3999 269.4ZM162.4 269.4C160.53 271.27 158.988 273.632 158.973 274.65C158.958 275.668 158.103 287.053 157.074 299.951C155.979 313.663 155.55 324.317 156.04 325.605C156.501 326.817 157.89 328.751 159.127 329.904C161.297 331.925 162.345 332 188.5 332C214.655 332 215.703 331.925 217.873 329.904C219.11 328.751 220.507 326.797 220.977 325.561C222.233 322.258 225.439 275.887 224.634 272.678C224.245 271.129 222.546 269.084 220.723 267.973C217.739 266.153 215.584 266.007 191.65 266.004L165.8 266L162.4 269.4ZM256.446 269.354C254.185 271.615 252.982 273.78 252.948 275.65C252.919 277.218 252.08 288.625 251.083 301C250.077 313.485 249.628 324.459 250.074 325.654C250.516 326.839 251.89 328.751 253.127 329.904C255.297 331.925 256.345 332 282.543 332H309.708L312.314 329.585C315.617 326.524 315.636 326.421 317.468 302.406C319.58 274.707 319.527 272.725 316.588 269.306L314.176 266.5L287.034 266.204L259.892 265.908L256.446 269.354ZM79.5499 282.25C79.8409 281.31 84.4339 281 98.0569 281H116.176L115.636 284.75C115.338 286.813 114.833 292.55 114.512 297.5C114.192 302.45 113.668 308.863 113.35 311.75L112.77 317H94.7469H76.7239L77.3439 309.75C77.6849 305.762 78.2339 298.225 78.5629 293C78.8929 287.775 79.3369 282.938 79.5499 282.25ZM173.578 283.25C174.035 281.017 174.172 281 192.113 281H210.188L209.628 285.75C209.32 288.363 208.812 294.325 208.5 299C208.188 303.675 207.68 309.637 207.372 312.25L206.812 317H188.777H170.742L171.352 310.25C171.688 306.538 172.223 299.45 172.54 294.5C172.858 289.55 173.325 284.488 173.578 283.25ZM267.578 283.25C268.035 281.017 268.172 281 286.113 281H304.188L303.628 285.75C303.32 288.363 302.812 294.325 302.5 299C302.188 303.675 301.68 309.637 301.372 312.25L300.812 317H282.777H264.742L265.352 310.25C265.688 306.538 266.223 299.45 266.54 294.5C266.858 289.55 267.325 284.488 267.578 283.25ZM357 297.687C351.835 299.664 350.234 306.234 354 310C355.907 311.907 357.333 312 384.777 312C417.491 312 418 311.894 418 305.098C418 302.518 417.329 300.702 415.897 299.405C413.947 297.639 411.776 297.486 386.147 297.306C370.941 297.2 357.825 297.371 357 297.687ZM351.285 350.452C347.771 352.006 346.364 355.33 347.427 359.566C348.685 364.579 352.296 365.122 382.165 364.796L409.176 364.5L411.588 361.694C414.633 358.153 414.633 355.847 411.588 352.306L409.176 349.5L381.838 349.265C359.988 349.078 353.855 349.316 351.285 350.452ZM63.3529 361.9C61.4859 363.054 59.7939 365.198 59.1919 367.173C58.6339 369.003 57.3949 381.439 56.4379 394.809C54.7129 418.914 54.7149 419.142 56.6929 421.809C57.7899 423.289 60.2199 425.037 62.0939 425.694C66.7749 427.334 109.225 427.334 113.906 425.694C120.431 423.407 120.814 422.088 123.014 394.324C125.099 368.006 124.977 366.076 121.012 362.5C118.931 360.624 117.178 360.483 92.6469 360.228C68.2219 359.973 66.2929 360.083 63.3529 361.9ZM157.301 361.932C152.994 364.593 152.503 366.977 150.43 395.302C148.701 418.921 148.703 419.125 150.687 421.802C151.787 423.286 154.22 425.037 156.094 425.694C160.775 427.334 203.225 427.334 207.906 425.694C214.529 423.373 214.932 421.987 217.061 394.221C218.252 378.703 218.652 368.22 218.109 366.8C217.625 365.535 216.231 363.6 215.012 362.5C212.931 360.624 211.178 360.483 186.647 360.228C162.082 359.972 160.306 360.075 157.301 361.932ZM251.301 361.958C247.009 364.575 246.541 366.865 244.475 395.341C242.766 418.891 242.769 419.214 244.716 421.841C245.8 423.303 248.22 425.037 250.094 425.694C254.775 427.334 297.225 427.334 301.906 425.694C308.454 423.399 308.914 421.876 311.031 395.435C312.086 382.271 312.96 370.442 312.974 369.15C312.989 367.786 311.573 365.373 309.6 363.4L306.2 360L280.35 360.004C256.482 360.007 254.255 360.157 251.301 361.958ZM72.9389 377.25C72.9999 375.002 73.0179 375 90.9999 375C109 375 109 375 109.001 377.25C109.002 378.488 108.473 386.587 107.826 395.25L106.65 411H88.5429H70.4359L71.6569 395.25C72.3279 386.587 72.9049 378.488 72.9389 377.25ZM166.946 377.75L167 375H185H203L203.006 377.75C203.01 379.262 202.489 387.363 201.848 395.75L200.682 411H182.564H164.446L165.669 395.75C166.341 387.363 166.916 379.262 166.946 377.75ZM260.946 377.75L261 375H279H297L297.006 377.75C297.01 379.262 296.489 387.363 295.848 395.75L294.682 411H276.564H258.446L259.669 395.75C260.341 387.363 260.916 379.262 260.946 377.75ZM344.488 404.013C341.991 406.772 342.167 411.611 344.861 414.306C347.02 416.464 347.531 416.5 376.116 416.5H405.177L407.088 414.139C409.567 411.079 409.527 406.527 407 404C405.091 402.091 403.667 402 375.655 402C347.517 402 346.235 402.083 344.488 404.013ZM0.335938 458C0.335938 461.898 0.493996 463.62 0.692819 462.057C0.704395 461.966 0.716109 461.863 0.727937 461.75C0.893529 460.169 0.932173 457.817 0.843869 455.875C0.816989 455.284 0.778346 454.731 0.727937 454.25C0.512937 452.188 0.335938 453.875 0.335938 458Z" fill="white"/>
<path d="M141.92 28.2359L226 28.0149L277 27.8294C286.612 27.3492 310.319 27.332 366.5 27.6019C417.1 27.8449 461.22 28.1999 464.545 28.3899C474.171 28.9419 481.947 34.1859 486.814 43.4099L489.5 48.4999L490.026 91.4999C490.525 132.217 491.107 142.898 501 292.671C506.746 379.665 511.797 450.626 512.224 450.362C512.651 450.098 513 452.843 513 456.463C513 468.117 506.747 478.45 497 482.902C493.824 484.352 471.484 484.5 255.973 484.5H18.4469L13.4829 481.945C7.71194 478.976 2.53994 472.707 0.912938 466.708C0.753292 466.12 0.672299 464.707 0.692819 462.057C0.704395 461.966 0.716109 461.863 0.727937 461.75C0.893529 460.169 0.932173 457.817 0.843869 455.875C1.48771 437.549 4.24475 392.023 10.9109 287C21.0909 126.629 22.0489 108.864 22.0259 80.9279C22.0039 55.5049 22.2689 49.5669 23.5969 45.6709C25.4589 40.2049 31.7669 33.3119 37.4999 30.4769C41.3929 28.5529 44.1779 28.4929 141.92 28.2359ZM472.602 48.6989C468.543 42.7109 473.739 42.9999 370.018 42.9999L363.489 43C317.812 43.0012 294.156 43.0018 281.767 42.4322L242.091 42.9999H143.428H44.7649L40.8819 46.8819L36.9999 50.7649V80.9009V111.038L59.7499 110.769L82.4999 110.5L82.9999 103.668C83.5619 95.9869 85.1109 93.9999 90.5359 93.9999C95.3139 93.9999 97.3369 96.9309 97.8229 104.557L98.2329 111H123.616H149V105.135C149 97.6319 151.47 93.9999 156.573 93.9999C162.054 93.9999 164 96.7499 164 104.5V111H190H216V104.5C216 96.7499 217.946 93.9999 223.427 93.9999C228.53 93.9999 231 97.6319 231 105.135V111H256.384H281.767L282.177 104.557C282.67 96.8229 284.669 93.9999 289.655 93.9999C295.047 93.9999 297 96.7919 297 104.5V111H323H349V104.689C349 97.0389 351.123 93.9999 356.466 93.9999C361.527 93.9999 364 97.6549 364 105.135V111H389.384H414.767L415.189 104.366C415.663 96.9259 417.868 93.9999 423 93.9999C428.04 93.9999 430.133 96.7839 430.735 104.289L431.274 111H453.204H475.134L474.817 81.2499C474.526 53.9869 474.341 51.2659 472.602 48.6989ZM25.4759 296.099C19.6869 386.943 15.2219 462.125 15.5539 463.169C15.8849 464.213 17.1059 465.952 18.2669 467.034C20.3509 468.976 22.9789 469 233.054 469C442.994 469 445.762 468.975 448.23 467.034C449.605 465.953 451.221 463.815 451.822 462.284C452.423 460.753 453.849 444.425 454.992 426C455.674 415.003 456.45 404.773 457.088 398L459.985 352.306C460.405 340.042 462.358 310.382 467.029 237.035C470.863 176.829 474 127.217 474 126.785C474 126.353 464.387 126 452.639 126H431.278L430.712 132.239C430.249 137.34 429.667 138.889 427.517 140.739C424.169 143.619 421.805 143.596 418.38 140.651C416.089 138.679 415.578 137.313 415.205 132.151L414.76 126H389.38H364V131.418C364 138.302 363.421 139.731 359.887 141.558C353.505 144.859 349 140.811 349 131.777V126H323H297V132.345C297 139.284 295.783 141.274 290.775 142.524C288.57 143.075 287.474 142.628 285.025 140.179C282.382 137.535 282 136.45 282 131.577V126H256.5H231V131.577C231 136.45 230.618 137.535 227.975 140.179C225.55 142.604 224.409 143.076 222.225 142.559C217.736 141.497 216 138.522 216 131.889V126H190H164V131.566C164 134.627 163.523 138.023 162.939 139.114C161.391 142.006 157.221 143.334 153.946 141.978C150.512 140.555 149 137.185 149 130.953V126H123.62H98.2399L97.7949 132.151C97.4179 137.365 96.9209 138.671 94.5349 140.724C92.4369 142.528 91.0529 142.98 89.1089 142.495C84.2219 141.276 82.9999 139.245 82.9999 132.345V126H59.4999H35.9999V128.464C35.9999 129.819 31.2639 205.255 25.4759 296.099ZM466.925 465.261C466.416 467.035 466 468.602 466 468.743C466 468.885 471.85 469 479 469C490.611 469 492.211 468.789 493.975 467.025C495.061 465.939 496.193 464.027 496.492 462.775C496.79 461.524 493.703 410.55 489.631 349.5C485.559 288.45 482.162 239.175 482.083 240C482.003 240.825 480.225 268.159 478.131 300.742C476.131 331.863 475.093 346.977 474.245 354.5L471.574 398C471.432 403.793 470.942 412.942 470.059 426.959C468.844 446.25 467.434 463.486 466.925 465.261Z" fill="white"/>
</g>
<defs>
<clipPath id="clip0_2670_4380">
<rect width="512" height="512" fill="white"/>
</clipPath>
</defs>
</svg>
