<svg width="86" height="85" viewBox="0 0 86 85" fill="none" xmlns="http://www.w3.org/2000/svg">
<g clip-path="url(#clip0_588_553)">
<path d="M80.875 17H79.4583C79.4583 16.2166 78.8251 15.5833 78.0417 15.5833H70.9583C70.1749 15.5833 69.5417 16.2166 69.5417 17V7.08333C69.5417 4.74017 67.6348 2.83333 65.2917 2.83333H56.4021C55.8156 1.18858 54.2572 0 52.4127 0H32.7083C30.8638 0 29.3055 1.18858 28.719 2.83333H19.9583C17.6152 2.83333 15.7083 4.74017 15.7083 7.08333V15.5833H8.625C7.843 15.5833 7.20833 16.2166 7.20833 17H4.375C2.03183 17 0.125 18.9068 0.125 21.25V80.75C0.125 83.0932 2.03183 85 4.375 85H80.875C83.2182 85 85.125 83.0932 85.125 80.75V21.25C85.125 18.9068 83.2182 17 80.875 17ZM72.375 19.8333H76.625V25.5H72.375V19.8333ZM72.375 28.3333H76.625V29.75C76.625 30.532 75.9903 31.1667 75.2083 31.1667H73.7917C73.0097 31.1667 72.375 30.532 72.375 29.75V28.3333ZM56.7917 5.66667H65.2917C66.0737 5.66667 66.7083 6.30133 66.7083 7.08333V17H63.875V9.91667C63.875 9.53558 63.7234 9.17292 63.45 8.90517C63.1794 8.63883 62.8592 8.47875 62.4314 8.5L56.7917 8.602V5.66667ZM31.2917 4.25C31.2917 3.468 31.9277 2.83333 32.7083 2.83333H34.125V4.25C34.125 5.03342 34.7597 5.66667 35.5417 5.66667C36.3237 5.66667 36.9583 5.03342 36.9583 4.25V2.83333H41.2083V4.25C41.2083 5.03342 41.843 5.66667 42.625 5.66667C43.407 5.66667 44.0417 5.03342 44.0417 4.25V2.83333H48.2917V4.25C48.2917 5.03342 48.9249 5.66667 49.7083 5.66667C50.4917 5.66667 51.125 5.03342 51.125 4.25V2.83333H52.4127C53.1947 2.83333 53.9583 3.468 53.9583 4.25V9.91667C53.9583 10.6987 53.1947 11.3333 52.4127 11.3333H32.7083C31.9277 11.3333 31.2917 10.6987 31.2917 9.91667V4.25ZM28.753 11.4424C29.3692 13.0319 30.9035 14.1667 32.7083 14.1667H52.4127C54.2162 14.1667 55.7504 13.0333 56.3667 11.4438L61.0417 11.3602V17H24.2083V11.3602L28.753 11.4424ZM18.5417 7.08333C18.5417 6.30133 19.1777 5.66667 19.9583 5.66667H28.4583V8.602L22.8172 8.5C22.4205 8.47167 22.0692 8.63883 21.7986 8.90517C21.528 9.17292 21.375 9.53558 21.375 9.91667V17H18.5417V7.08333ZM10.0417 19.8333H14.2917V25.5H10.0417V19.8333ZM10.0417 28.3333H14.2917V29.75C14.2917 30.532 13.6556 31.1667 12.875 31.1667H11.4583C10.6777 31.1667 10.0417 30.532 10.0417 29.75V28.3333ZM14.2917 82.1667H10.0417V80.75C10.0417 79.968 10.6777 79.3333 11.4583 79.3333H12.875C13.6556 79.3333 14.2917 79.968 14.2917 80.75V82.1667ZM75.2083 82.1667H70.9583V80.75C70.9583 79.968 71.593 79.3333 72.375 79.3333H73.7917C74.5737 79.3333 75.2083 79.968 75.2083 80.75V82.1667ZM82.2917 80.75C82.2917 81.532 81.657 82.1667 80.875 82.1667H78.0417V80.75C78.0417 78.4068 76.1348 76.5 73.7917 76.5H72.375C70.0318 76.5 68.125 78.4068 68.125 80.75V82.1667H17.125V80.75C17.125 78.4068 15.2182 76.5 12.875 76.5H11.4583C9.11517 76.5 7.20833 78.4068 7.20833 80.75V82.1667H4.375C3.59442 82.1667 2.95833 81.532 2.95833 80.75V21.25C2.95833 20.468 3.59442 19.8333 4.375 19.8333H7.20833V29.75C7.20833 32.0932 9.11517 34 11.4583 34H12.875C15.2182 34 17.125 32.0932 17.125 29.75V19.8333H69.5417V29.75C69.5417 32.0932 71.4485 34 73.7917 34H75.2083C77.5515 34 79.4583 32.0932 79.4583 29.75V19.8333H80.875C81.657 19.8333 82.2917 20.468 82.2917 21.25V80.75Z" fill="white"/>
<path d="M42.625 72.25C54.3422 72.25 63.875 62.7173 63.875 51C63.875 39.2828 54.3422 29.75 42.625 29.75C30.9077 29.75 21.375 39.2828 21.375 51C21.375 62.7173 30.9077 72.25 42.625 72.25ZM42.625 32.5833C52.7797 32.5833 61.0417 40.8453 61.0417 51C61.0417 61.1547 52.7797 69.4167 42.625 69.4167C32.4703 69.4167 24.2083 61.1547 24.2083 51C24.2083 40.8453 32.4703 32.5833 42.625 32.5833Z" fill="white"/>
<path d="M42.625 24.0833C31.779 24.0833 22.0423 30.5404 17.8206 40.5307C17.5161 41.2518 17.8532 42.0834 18.5743 42.388C18.7528 42.4645 18.9398 42.4999 19.124 42.4999C19.6765 42.4999 20.2006 42.1755 20.4287 41.6357C24.2084 32.6937 32.9195 26.9166 42.625 26.9166C52.332 26.9166 61.0431 32.6938 64.82 41.6343C65.1245 42.3554 65.9561 42.694 66.6758 42.388C67.3969 42.0834 67.734 41.2532 67.4295 40.5322C63.2078 30.5404 53.4725 24.0833 42.625 24.0833Z" fill="white"/>
<path d="M66.1048 61.0653C65.4007 60.7154 64.5536 61.003 64.2051 61.7028C60.1038 69.9563 51.8347 75.0833 42.625 75.0833C33.4166 75.0833 25.149 69.9578 21.0463 61.7071C20.6978 61.0073 19.8478 60.7183 19.1466 61.0696C18.4453 61.4181 18.1606 62.2681 18.5091 62.9693C23.0934 72.189 32.3343 77.9166 42.625 77.9166C52.9185 77.9166 62.1594 72.1876 66.7423 62.9651C67.0922 62.2638 66.8046 61.4153 66.1048 61.0653Z" fill="white"/>
<path d="M11.0475 49.9942C10.5233 49.47 9.56 49.47 9.03583 49.9942C8.90833 50.1359 8.80917 50.2775 8.73833 50.4617C8.6675 50.6317 8.625 50.8159 8.625 51C8.625 51.3825 8.76667 51.7367 9.03583 52.0059C9.305 52.2736 9.65917 52.4167 10.0417 52.4167C10.4242 52.4167 10.7783 52.2736 11.0475 52.0059C11.3167 51.7367 11.4583 51.3825 11.4583 51C11.4583 50.8159 11.4158 50.6317 11.345 50.4617C11.2742 50.2775 11.175 50.1359 11.0475 49.9942Z" fill="white"/>
<path d="M16.7142 49.9942C16.5726 49.8667 16.4309 49.7676 16.2467 49.6967C15.9917 49.5834 15.7084 49.5536 15.4251 49.6117C15.3401 49.6273 15.2551 49.6542 15.1701 49.6981C15.0851 49.7265 15.0001 49.769 14.9151 49.8256C14.8442 49.8681 14.7734 49.939 14.7026 49.9956C14.5751 50.1373 14.4759 50.279 14.4051 50.4631C14.3342 50.6317 14.2917 50.8159 14.2917 51.0001C14.2917 51.3826 14.4334 51.7367 14.7026 52.0059C14.9717 52.2736 15.3259 52.4167 15.7084 52.4167C15.8926 52.4167 16.0767 52.3742 16.2467 52.3034C16.4167 52.2326 16.5726 52.1334 16.7142 52.0059C16.8417 51.8628 16.9409 51.7084 17.0117 51.5384C17.0967 51.3684 17.1251 51.1842 17.1251 51.0001C17.1251 50.8159 17.0967 50.6317 17.0117 50.4617C16.9409 50.2776 16.8417 50.1359 16.7142 49.9942Z" fill="white"/>
<path d="M70.5475 49.9943C70.1508 49.5976 69.5275 49.4843 69.0033 49.6968C68.8192 49.7676 68.6775 49.8668 68.5358 49.9943C68.4083 50.1359 68.3092 50.2776 68.2383 50.4618C68.1533 50.6318 68.125 50.8159 68.125 51.0001C68.125 51.1843 68.1533 51.3684 68.2383 51.5384C68.3092 51.7084 68.4083 51.8629 68.5358 52.0059C68.8036 52.2737 69.1577 52.4168 69.5417 52.4168C69.9242 52.4168 70.2783 52.2737 70.5475 52.0059C70.8152 51.7368 70.9583 51.3826 70.9583 51.0001C70.9583 50.8159 70.9158 50.6318 70.845 50.4618C70.7742 50.2776 70.675 50.1359 70.5475 49.9943Z" fill="white"/>
<path d="M76.2142 49.9942C75.6901 49.47 74.7268 49.47 74.2026 49.9942C74.0751 50.1359 73.9759 50.2775 73.9051 50.4617C73.8343 50.6317 73.7917 50.8159 73.7917 51C73.7917 51.3825 73.9334 51.7367 74.2026 52.0059C74.4703 52.2736 74.8245 52.4167 75.2084 52.4167C75.3926 52.4167 75.5768 52.3742 75.7468 52.3034C75.9168 52.2325 76.0712 52.1334 76.2142 52.0059C76.482 51.7367 76.6251 51.3825 76.6251 51C76.6251 50.8159 76.5826 50.6317 76.5117 50.4617C76.4409 50.2775 76.3417 50.1359 76.2142 49.9942Z" fill="white"/>
<path d="M35.5416 58.0833V63.7499C35.5416 64.5333 36.1763 65.1666 36.9583 65.1666H48.2916C49.075 65.1666 49.7083 64.5333 49.7083 63.7499V58.0833H55.3749C56.1583 58.0833 56.7916 57.45 56.7916 56.6666V45.3333C56.7916 44.5498 56.1583 43.9166 55.3749 43.9166H49.7083V38.2499C49.7083 37.4665 49.075 36.8333 48.2916 36.8333H36.9583C36.1763 36.8333 35.5416 37.4665 35.5416 38.2499V43.9166H30.0038C29.2218 43.9166 28.4583 44.5498 28.4583 45.3333V56.6666C28.4583 57.45 29.2218 58.0833 30.0038 58.0833H35.5416ZM31.2916 46.7499H38.3749V39.6666H46.8749V46.7499H53.9583V55.2499H46.8749V62.3333H38.3749V55.2499H31.2916V46.7499Z" fill="white"/>
</g>
<defs>
<clipPath id="clip0_588_553">
<rect width="85" height="85" fill="white" transform="translate(0.125)"/>
</clipPath>
</defs>
</svg>
