<svg width="512" height="512" viewBox="0 0 512 512" fill="none" xmlns="http://www.w3.org/2000/svg">
<path d="M296.636 26.4682C289.839 27.884 285.641 29.4049 278.078 33.1886C267.159 38.6507 264.099 39.4533 254.09 39.4759C238.604 39.5113 226.683 44.0531 216.25 53.895C212.856 57.0971 208.504 62.3962 206.582 65.6708C202.142 73.2327 197.166 77.9403 187.834 83.4115C183.756 85.802 178.587 89.631 176.347 91.92C167.657 100.799 162.207 113.464 162.107 125.011C162.013 135.993 160.586 141.993 156.262 149.584C150.282 160.084 148.477 165.595 147.972 174.89C147.392 185.555 149.012 191.667 155.998 205.165L161.426 215.652L161.839 226.069C162.099 232.653 162.899 238.653 164.011 242.374C167.773 254.961 176.824 265.993 188.491 272.212C195.968 276.198 202.431 282.254 205.951 288.572C207.477 291.312 211.804 296.627 215.566 300.384C226.381 311.183 237.863 315.697 254.604 315.731C263.585 315.749 269.566 317.302 277.53 321.682C286.178 326.438 293.033 328.494 302.067 329.037C312.907 329.689 320.128 327.922 333.113 321.439L343.339 316.333L355.744 315.679C370.938 314.877 377.653 312.935 387.104 306.609C394.301 301.792 397.924 297.899 403.464 289.025C408.404 281.113 411.542 278.137 420.653 272.726C425.134 270.065 430.902 265.713 433.469 263.057C443.579 252.598 447.153 243.619 448.196 226.069C448.91 214.056 449.17 213.235 456.229 200.681C460.012 193.951 461.842 186.432 461.842 177.607C461.842 168.503 459.996 161.216 455.762 153.603C449.035 141.506 448.921 141.136 448.203 129.145C447.405 115.845 445.322 108.32 440.284 100.546C435.792 93.6112 427.53 86.0194 420.255 82.1425C412.428 77.9702 408.133 73.8695 403.632 66.2741C396.635 54.4648 385.462 45.4771 373.128 41.7378C370.371 40.9017 362.568 39.9044 355.64 39.5022L343.131 38.7776L333.009 33.7257C327.442 30.9466 320.24 28.0507 317.004 27.2898C311.56 26.0107 300.895 25.5805 296.636 26.4682ZM296.86 44.074C305.754 41.976 314.986 43.6826 325.419 49.3504C335.35 54.7474 339.682 55.8887 353.213 56.6759C372.993 57.8254 380.062 61.5737 388.911 75.6078C394.887 85.0846 402.067 92.1057 410.237 96.4601C424.967 104.312 431.016 114.771 431.049 132.447C431.066 141.401 433.295 149.22 438.311 157.926C443.174 166.366 444.642 170.93 444.642 177.607C444.642 184.301 443.103 189.083 438.374 197.083C433.164 205.896 431.826 210.696 431.049 223.352C430.194 237.295 428.222 243.101 422.045 249.865C419.452 252.703 415.002 256.107 411.085 258.246C401.975 263.224 395.606 269.344 388.88 279.584C379.524 293.827 372.833 297.381 353.213 298.528C339.263 299.343 335.915 300.23 324.981 306.005C309.953 313.945 301.051 313.989 285.493 306.202C273.448 300.174 267.321 298.536 256.805 298.536C238.927 298.536 230.246 293.817 220.488 278.797C214.149 269.038 209.091 264.223 198.835 258.182C189.655 252.776 186.071 249.266 182.433 242.114C180.364 238.047 179.935 235.759 179.344 225.616C178.575 212.453 176.564 205.404 170.991 196.339C162.999 183.341 163.098 171.909 171.319 158.268C176.667 149.395 178.664 142.28 179.349 129.665C180.294 112.236 184.24 105.627 198.835 97.0326C209.091 90.9916 214.149 86.1771 220.488 76.4176C230.246 61.3971 238.927 56.6786 256.805 56.6786C267.213 56.6786 273.491 55.03 284.604 49.3803C289.477 46.902 294.993 44.5151 296.86 44.074ZM352.696 87.8329C350.385 88.8574 341.148 103.107 297.956 172.287C242.489 261.129 243.074 260.067 246.998 264.839C247.911 265.949 249.953 267.222 251.534 267.668C258.127 269.528 256.157 272.294 312.417 182.136C369.01 91.4454 367.243 94.72 362.245 89.7968C359.35 86.9452 356.173 86.2921 352.696 87.8329ZM248.123 92.7643C234.787 97.1757 224.693 109.173 221.455 124.458C219.123 135.469 220.48 146.255 225.422 155.978C239.946 184.559 275.735 185.282 290.641 157.297C294.745 149.592 296.161 143.763 296.161 134.58C296.161 121.26 292.135 110.852 283.639 102.214C274.072 92.4853 260.157 88.7831 248.123 92.7643ZM252.279 109.661C257.588 107.798 260.867 108.031 266.103 110.642C274.151 114.656 278.989 123.628 278.978 134.519C278.956 156.551 259.265 168.379 245.513 154.618C235.486 144.584 235.184 125.683 244.88 115.068C247.048 112.694 250.202 110.39 252.279 109.661ZM341.154 178.877C311.95 188.543 303.728 231.449 326.851 253.518C332.72 259.12 337.039 261.552 344.057 263.205C367.108 268.636 389.423 247.779 389.423 220.801C389.423 208.061 385.317 197.521 376.925 188.716C367.269 178.586 353.487 174.796 341.154 178.877ZM345.623 195.699C347.557 195.009 349.954 194.429 350.95 194.41C357.927 194.276 366.072 200.295 369.613 208.2C372.61 214.889 372.64 226.397 369.678 232.863C365.878 241.161 358.434 246.864 351.403 246.864C344.361 246.864 336.897 241.139 333.15 232.863C330.251 226.459 330.26 214.871 333.169 208.309C335.666 202.676 340.89 197.387 345.623 195.699ZM31.8046 314.621L28.7467 317.355L26.6049 395.404C24.6188 467.773 24.57 473.616 25.9423 475.712C26.7561 476.955 28.3629 478.33 29.5135 478.768C30.6631 479.205 47.5684 480.043 67.08 480.629C110.462 481.933 109.282 482.203 110.524 470.679L111.062 465.686L120.885 460.424C132.337 454.288 139.749 452.076 145.811 452.986C148.108 453.33 158.338 455.976 168.545 458.866C229.776 476.2 259.313 484.273 264.5 485.096C273.148 486.468 291.158 486.245 300.364 484.652C304.786 483.887 312.897 481.735 318.387 479.871C328.11 476.568 330.371 475.188 405.29 426.8C447.596 399.476 483.534 375.75 485.152 374.074C488.846 370.25 488.932 367.221 485.496 361.895C480.53 354.199 473.131 348.141 464.434 344.652C457.664 341.935 444.94 341.274 438.042 343.28C435.218 344.102 416.955 352.316 397.457 361.533C377.96 370.751 361.927 378.18 361.83 378.044C361.733 377.908 360.413 375.962 358.895 373.72C355.268 368.358 346.606 360.189 341.199 357.027C334.482 353.101 325.328 350.292 317.428 349.734C313.461 349.455 295.669 348.813 277.891 348.311C239.641 347.229 238.008 346.933 218.333 337.522C196.315 326.991 183.965 324.281 161.554 325.063C145.465 325.624 134.924 327.861 122.036 333.45C118.066 335.172 114.685 336.581 114.523 336.581C114.362 336.581 114.23 332.677 114.23 327.906C114.23 319.63 114.114 319.115 111.717 316.716C108.91 313.907 109.919 313.983 55.7627 312.47L34.8625 311.886L31.8046 314.621ZM45.8648 330.649C46.1481 329.675 55.473 329.713 83.2901 330.8L97.1583 331.342L96.6306 342.341C96.3409 348.389 95.4574 378 94.668 408.142C93.8786 438.283 92.9671 463.176 92.6421 463.461C92.0971 463.937 42.5706 462.758 42.2719 462.261C42.0293 461.856 45.5842 331.617 45.8648 330.649ZM151.272 342.931C158.323 341.737 174.271 341.951 182.231 343.346C192.227 345.098 200.065 347.888 213.868 354.612C232.968 363.915 236.924 364.604 277.173 365.632C315.968 366.623 322.14 367.188 329.117 370.385C337.958 374.434 345.727 383.063 349.07 392.546L350.417 396.366L342.084 396.38C337.501 396.388 315.964 395.91 294.225 395.319C249.979 394.114 251.244 393.972 249.13 400.384C247.888 404.151 249.126 407.473 252.732 410.048C254.78 411.51 260.021 411.802 308.105 413.134C355.661 414.451 361.493 414.46 363.876 413.227C367.621 411.289 368.968 407.447 368.324 400.544L367.792 394.841L404.632 377.39C434.962 363.024 442.366 359.857 446.518 359.472C452.522 358.915 460.156 360.906 464.022 364.038L466.657 366.171L459.044 371.131C354.403 439.31 319.87 461.156 312.989 463.524C298.851 468.39 280.959 470.095 267.301 467.878C264.112 467.36 238.443 460.451 210.259 452.525C151.66 436.045 148.923 435.348 142.664 435.33C135.974 435.31 125.028 438.381 118.233 442.184C114.984 444.002 112.074 445.236 111.766 444.928C111.457 444.62 111.712 424.905 112.331 401.118C113.334 362.56 113.621 357.738 114.974 356.669C120.813 352.057 139.785 344.877 151.272 342.931Z" fill="white"/>
</svg>
