<svg width="512" height="512" viewBox="0 0 512 512" fill="none" xmlns="http://www.w3.org/2000/svg">
<path d="M201.5 29.163C204.25 28.647 228.55 28.181 255.5 28.129C309.747 28.025 312.699 28.283 324.787 34.193C333.767 38.584 344.546 49.278 348.813 58.031C354.837 70.389 355.1 72.868 354.785 114.373L354.5 151.923L358.331 153.65C363.489 155.975 369.451 162.968 371.004 168.513C373.379 176.998 371.11 185.737 364.923 191.923C360.259 196.587 356.377 198.207 348.227 198.887L340.884 199.5L338.416 206.841C335.47 215.603 333.004 220.603 327.946 228.067C323.754 234.253 315.346 243.27 310.03 247.278C308.122 248.717 306.839 250.172 307.179 250.512C307.519 250.852 310.576 251.778 313.972 252.571C334.142 257.276 352.176 274.122 358.042 293.737C359.473 298.524 357.496 297.702 390 307.016C407.124 311.922 412.269 314.495 420.725 322.379C425.471 326.804 428.013 330.268 431.001 336.379C434.707 343.96 435.869 348.9 448.486 410.709C455.919 447.124 462 477.407 462 478.004C462 478.602 460.895 480.195 459.545 481.545L457.091 484H256H54.909L52.455 481.545C51.105 480.195 50 478.602 50 478.004C50 477.407 56.081 447.124 63.514 410.709C76.131 348.9 77.293 343.96 80.999 336.379C84.009 330.222 86.535 326.793 91.448 322.198C99.65 314.525 106.323 311.399 127 305.543C155.953 297.344 157 296.977 157 295.018C157 294.036 158.874 289.467 161.165 284.866C168.751 269.627 184.087 256.982 199.897 252.93C202.704 252.21 204.989 251.144 204.976 250.561C204.963 249.977 203.103 248.15 200.843 246.5C190.695 239.092 178.869 222.071 173.917 207.746L171.066 199.5L164.283 198.937C160.552 198.627 155.823 197.568 153.773 196.584C144.433 192.099 138.697 180.401 140.934 170.402C142.459 163.588 146.83 157.652 152.761 154.342L157.5 151.697L157.201 116.102C156.857 75.045 157.329 70.571 163.25 58.741C168.805 47.642 177.077 39.466 188.159 34.124C192.746 31.913 198.75 29.68 201.5 29.163ZM205.314 43.069C188.357 45.998 174.86 59.803 172.056 77.086C171.483 80.614 171.012 97.787 171.008 115.25C171 145.672 171.084 147.084 173 149C175.491 151.491 178.189 151.554 180.345 149.171C181.75 147.619 182.004 144.706 182.024 129.921C182.038 120.34 182.504 110.527 183.06 108.115C185.652 96.869 194.506 85.243 204.648 79.766C219.308 71.85 235.009 72.485 250.135 81.607L255.77 85.005L264.635 80.457C275.901 74.677 283.516 73.167 293.109 74.812C307.456 77.272 319.704 86.451 326.091 99.528L329.496 106.5L329.998 127.1C330.532 148.997 330.99 151 335.467 151C336.69 151 338.461 150.148 339.403 149.108C340.966 147.38 341.087 144.05 340.797 110.858C340.488 75.569 340.411 74.331 338.167 68.748C335.119 61.164 329.188 53.809 322.588 49.427C312.21 42.536 312.858 42.608 259 42.38C232.325 42.266 208.166 42.577 205.314 43.069ZM220.344 89.057C211.323 90.808 203.023 97.299 198.863 105.857C196.816 110.067 196.553 112.413 196.048 131C195.651 145.568 195.093 152.223 194.12 154C192.086 157.712 188.866 161 185.6 162.698L182.701 164.206L183.337 177.353C184.086 192.833 185.819 200.835 190.557 210.686C199.63 229.549 217.494 244.249 238 249.726C248.025 252.403 266.342 252.118 276 249.134C296.551 242.783 312.677 229.097 321.448 210.561C326.194 200.531 327.963 192.402 328.676 177.353L329.299 164.206L326.269 162.639C322.167 160.518 318.295 155.725 317.044 151.219C316.476 149.174 316.009 139.754 316.006 130.288C316.001 115.59 315.711 112.302 314.02 107.788C311.197 100.246 306.923 95.58 299.489 91.92C288.06 86.294 278.901 87.634 264.43 97.05C261.092 99.223 257.327 101 256.065 101C254.802 101 250.718 98.972 246.988 96.492C236.794 89.715 228.655 87.444 220.344 89.057ZM223.073 155.635C220.351 159.095 220.456 161.547 223.455 164.545C228.179 169.27 235 166.38 235 159.655C235 153.078 227.162 150.436 223.073 155.635ZM278.655 154.829C274.825 159.061 278.015 167 283.545 167C286.537 167 291 162.917 291 160.18C291 159.129 290.067 157.084 288.927 155.635C286.415 152.441 281.187 152.031 278.655 154.829ZM160.329 166.458C156.523 168.113 155 170.663 155 175.378C155 180.611 158.434 184.069 164.283 184.728L169 185.26V175.13V165L166.25 165.039C164.738 165.061 162.073 165.699 160.329 166.458ZM343 175V185.26L347.618 184.74C353.874 184.034 357.455 180.49 357.455 175C357.455 169.51 353.874 165.966 347.618 165.26L343 164.74V175ZM239.315 204.016C236.856 204.997 235 207.913 235 210.799C235 216.303 246.361 223.288 255.302 223.282C261.942 223.278 270.066 219.828 274.007 215.339C275.653 213.464 277 211.517 277 211.012C277 208.554 274.447 205.014 271.919 203.966C269.425 202.934 268.467 203.158 263.677 205.899C257.164 209.625 253.457 209.799 248.743 206.6C244.223 203.533 242.034 202.933 239.315 204.016ZM220 272.297V285.594L237.465 301.797C247.07 310.709 255.422 318 256.025 318C256.628 318 264.969 310.711 274.561 301.802L292 285.604V272.302C292 264.986 291.663 259 291.25 259.001C290.837 259.001 288.025 259.943 285 261.094C281.975 262.245 276.198 263.82 272.162 264.594C257.898 267.328 239.668 265.915 227 261.094C223.975 259.943 221.162 259.001 220.75 259.001C220.338 259 220 264.984 220 272.297ZM202 267.026C197.085 268.355 188.744 273.195 184.271 277.313C179.955 281.286 172.654 290.987 173.41 291.743C173.873 292.206 203.262 283.882 204.293 282.996C204.729 282.621 204.954 278.722 204.793 274.332C204.5 266.356 204.498 266.351 202 267.026ZM307.209 274.514L307.5 283.303L324.437 288.131C333.753 290.786 341.57 292.763 341.809 292.524C342.732 291.602 336.396 282.282 331.808 277.813C326.551 272.692 316.628 267.301 310.685 266.336L306.918 265.725L307.209 274.514ZM207.25 297.295C205.463 297.842 204 298.643 204 299.076C204 300.323 221.048 344.427 221.813 345.157C222.526 345.839 243.188 329.937 243.739 328.282C243.911 327.767 238.303 322.01 231.276 315.489C208.384 294.245 210.926 296.17 207.25 297.295ZM284.699 311.746C275.514 320.236 268 327.552 268 328.004C268 328.883 290.018 346.364 290.442 345.822C291 345.108 308 299.936 308 299.166C308 298.709 306.514 297.88 304.699 297.322C301.413 296.314 301.318 296.383 284.699 311.746ZM177.75 305.711L169 308.27V319.056V329.841L172.25 330.544C183.065 332.882 192.83 342.396 195.298 353C195.618 354.375 197.08 370.309 198.546 388.41C200.706 415.076 201.003 422.361 200.109 426.811C198.162 436.509 191.857 442 182.671 442C178.973 442 177.766 441.518 176.073 439.365C174.933 437.916 174 435.871 174 434.82C174 431.863 178.473 428 181.896 428C183.538 428 185.174 427.527 185.531 426.949C186.634 425.165 186.166 412.621 183.949 384.5C181.463 352.968 180.641 350.084 173.038 346.25C166.739 343.074 156.031 343.092 149.985 346.29C142.717 350.133 142.252 351.853 139.467 385.134C136.031 426.195 136.12 428 141.565 428C147.433 428 150.87 434.886 147.443 439.777C145.175 443.016 137.185 442.885 131.434 439.514C125.058 435.778 122.995 430.731 123.021 418.934C123.049 405.938 127.602 354.293 129.098 350C132.311 340.777 140.594 333.257 150.033 330.992L155 329.801V321.4C155 316.304 154.595 313 153.97 313C151.517 313 113.136 324.437 109.608 326.219C103.76 329.174 96.686 336.288 93.698 342.219C91.654 346.277 88.244 361.166 78.974 406.5C72.339 438.95 66.657 466.512 66.347 467.75L65.783 470H256H446.217L445.661 467.75C445.355 466.512 439.69 439.052 433.072 406.727C423.904 361.944 420.398 346.645 418.344 342.45C415.353 336.342 408.35 329.222 402.392 326.233C398.799 324.43 364.392 314 362.038 314C361.356 314 361 320.665 361 333.422V352.845L364.75 354.016C375.391 357.34 384.67 367.479 387.585 378.964C390.742 391.406 386.641 404.642 376.921 413.381C369.61 419.954 362.651 422.298 352 421.773C342.103 421.286 335.465 418.465 329 412C322.535 405.535 319.714 398.897 319.227 389C318.703 378.363 321.047 371.388 327.595 364.106C331.749 359.485 342.298 353 345.66 353C346.738 353 347 348.811 347 331.535C347 312.097 346.835 309.987 345.25 309.184C342.196 307.638 323.031 302.636 322.437 303.229C322.124 303.543 308.63 338.285 292.451 380.434C276.271 422.583 262.563 457.948 261.988 459.022C259.865 462.988 251.702 462.784 250.002 458.722C249.49 457.5 235.957 422.525 219.928 381C203.9 339.475 190.561 304.938 190.286 304.25C189.604 302.544 187.894 302.743 177.75 305.711ZM249.28 342.759C245.858 345.367 243.046 347.836 243.03 348.247C243.013 348.658 244.627 350.796 246.616 352.997C250.04 356.787 250.54 357 256 357C261.46 357 261.96 356.787 265.384 352.997C267.373 350.796 268.975 348.658 268.944 348.247C268.879 347.373 258.678 339.188 256.787 338.492C256.079 338.231 252.701 340.151 249.28 342.759ZM228.846 358.583C227.379 360.05 227.493 360.82 230.219 367.842C235.696 381.951 235.02 381.434 237.167 373.16L239.071 365.821L235.346 361.66C230.808 356.591 230.828 356.6 228.846 358.583ZM276.745 361.458L272.991 365.85L274.689 372.925C275.623 376.816 276.637 379.997 276.943 379.992C277.25 379.988 279.144 375.601 281.152 370.242C284.488 361.345 284.67 360.348 283.247 358.75C282.391 357.788 281.422 357.015 281.095 357.033C280.768 357.051 278.81 359.042 276.745 361.458ZM349.5 366.925C335.312 370.425 329.048 384.207 335.784 397.101C338.038 401.416 339.584 402.962 343.899 405.216C360.181 413.722 377.667 400.532 373.829 382.638C371.575 372.129 359.644 364.423 349.5 366.925ZM248.342 387.559L244.232 404.119L249.81 418.559C252.878 426.502 255.665 433 256.003 433C256.341 433 259.12 426.476 262.178 418.503L267.74 404.005L263.644 387.503L259.548 371H256H252.452L248.342 387.559Z" fill="white"/>
</svg>
