<svg width="512" height="512" viewBox="0 0 512 512" fill="none" xmlns="http://www.w3.org/2000/svg">
<path d="M243.916 56.9611C202.299 62.1761 196.786 63.0751 192.203 65.3971C183.071 70.0241 176.897 76.9831 173.775 86.1661C173.092 88.1761 172.415 101.186 172.071 118.927L171.5 148.355L153 151.651C142.825 153.463 127.198 156.359 118.274 158.085C117.477 158.239 116.716 158.385 115.988 158.525C108.252 160.011 104.346 160.761 101.214 162.736C98.0207 164.75 95.6308 168.038 90.8047 174.677C90.3597 175.289 89.8939 175.93 89.4049 176.601C70.2859 202.829 54.5179 233.849 44.6049 264.732C36.9813 288.482 35.7902 298.019 34.7997 305.949C34.5023 308.33 34.2229 310.567 33.7929 313C31.9309 323.535 32.2399 353.933 34.3139 364.275C43.5809 410.484 75.9369 443.795 123.354 455.944C145.3 461.567 158.067 462.004 200.925 458.599L248.712 454.534C342.834 443.821 400.173 430.739 441.602 410.527C454.42 404.274 457.673 402.202 463.106 396.83C478.083 382.02 481.991 363.405 478.603 323C475.825 289.852 472.322 271.826 463.595 245.757C445.983 193.147 417.227 149.992 389.4 134.411C376.624 127.258 373.855 126.741 351.75 127.392L332 127.973V106.623C332 83.9701 331.233 77.1781 327.896 70.2851C324.894 64.0841 317.8 57.2561 311.24 54.2521C302.321 50.1691 296.144 50.4181 243.916 56.9611ZM57.4694 276.645C58.2335 274.428 59.1244 271.842 60.2099 268.5C65.8289 251.199 73.2019 233.927 81.1249 219.5C86.9989 208.804 101.43 186.479 106.286 180.574L108.693 177.647L112.097 179.767C117.075 182.869 126.258 192.636 130.47 199.308C142.494 218.359 149.832 246.55 154.206 290.5C156.651 315.067 155.369 441.964 152.649 444.685C151.682 445.651 129.635 441.556 121.033 438.813C91.5219 429.401 71.0819 412.536 59.0109 387.638C48.8539 366.689 45.0088 344.186 49.5979 313.5C53.3004 288.742 54.2786 285.904 57.4694 276.645ZM200.86 78.9491C202.862 78.3631 224.075 75.4861 248 72.5561C296.098 66.6641 299.629 66.4001 304.298 68.3511C308.572 70.1371 313.635 76.0221 314.94 80.7231C315.526 82.8331 315.991 94.2971 315.994 106.705L316 128.909L312.75 129.414C310.962 129.692 306.462 130.198 302.75 130.539L296 131.159V116.481C296 104.945 295.649 101.062 294.359 98.3451C292.113 93.6101 286.881 89.8521 281.744 89.2821C277.266 88.7851 228.684 94.1871 221 96.0361C216.582 97.0991 211.965 100.546 209.664 104.5C208.955 105.718 208.305 113.526 208 124.479L207.5 142.459L200.5 143.668C196.65 144.333 192.262 144.905 190.75 144.939L188 145L188.006 120.25C188.009 105.888 188.456 93.8961 189.072 91.6791C190.486 86.5871 196.332 80.2741 200.86 78.9491ZM226.25 110.961C227.488 110.94 238.625 109.637 251 108.065C263.375 106.494 274.962 105.162 276.75 105.104L280 105V118.877V132.753L270.25 133.928C256.633 135.568 231.146 138.959 227.25 139.648L224 140.223V125.611C224 111.137 224.021 111 226.25 110.961ZM217.305 441.653L193.402 443.176C180.256 444.013 169.371 444.599 169.214 444.479C169.056 444.359 169.379 438.689 169.932 431.88C170.484 425.071 171.471 404.795 172.125 386.823C174.248 328.442 170.494 275.383 161.58 237.772C158.975 226.782 153.713 210.318 151.315 205.657C150.511 204.093 150.085 202.582 150.369 202.297C150.654 202.013 189.496 196.676 236.686 190.438C283.877 184.199 323.515 178.837 324.772 178.521L352.705 174.961C353.692 174.939 365.525 173.439 379 171.628C401.46 168.609 403.656 168.466 405.372 169.917C406.401 170.788 410.288 175.775 414.01 181C437.278 213.669 453.235 254.579 460.034 298.996C464.669 329.271 464.684 364.818 460.067 373.868C445.975 401.491 384.757 421.313 268.075 436.035C254.641 437.73 242.839 439.551 241.848 440.082L217.305 441.653ZM271.368 229.11C267.985 231.917 268.017 234.567 271.755 260.919C273.781 275.205 275.216 287.117 274.943 287.39C274.67 287.663 262.759 289.517 248.473 291.51C218.64 295.672 217.981 295.941 218.026 303.924C218.067 311.267 222.719 340.957 224.087 342.604C227.138 346.281 228.509 346.273 255.598 342.421C270.119 340.356 282.199 338.866 282.443 339.109C282.687 339.353 284.485 351.016 286.439 365.027C288.394 379.037 290.504 391.483 291.13 392.684C293.38 397.004 296.105 397.156 316.925 394.123C335.132 391.471 336.497 391.124 338.675 388.591C339.954 387.105 341 385.3 341 384.581C341 383.862 339.425 372.351 337.5 359C335.575 345.649 334 333.964 334 333.034C334 331.583 337.387 330.879 357.75 328.095C387.204 324.068 388.57 323.731 390.482 320.035C391.837 317.415 391.738 315.427 389.428 298.822C386.588 278.4 386.138 276.792 382.628 274.492C380.328 272.985 378.538 273.113 355.433 276.439C341.831 278.398 329.716 280 328.512 280C326.412 280 326.191 279.032 323.09 256.25C318.956 225.875 318.785 225.226 314.473 223.424C312.598 222.641 310.937 222.05 310.782 222.111C310.627 222.171 302.05 223.477 291.722 225.011C281.394 226.546 272.235 228.39 271.368 229.11ZM232.874 174.908L142.5 186.883L140.184 184.192C138.911 182.711 136.101 179.394 133.939 176.82L130.009 172.14L135.255 171.077C145.991 168.901 180.303 163.026 205 159.134C264.963 149.686 312.574 144.521 350.74 143.322L370.98 142.686L378.299 146.303C382.325 148.293 386.43 150.817 387.421 151.913C389.171 153.847 389.155 153.921 386.862 154.417C385.563 154.698 376.939 155.91 367.697 157.112L318.687 164.116C309.537 164.802 287.749 167.637 232.874 174.908ZM285.494 244.337C285.05 242.369 285.569 242.087 291.253 241.214C294.689 240.687 299.112 240.198 301.083 240.127L304.665 240L307.391 259.25C308.89 269.837 310.59 281.731 311.17 285.681C312.483 294.635 314.408 297.017 320.289 296.958C322.605 296.935 335.075 295.417 348 293.584C360.925 291.751 371.602 290.335 371.728 290.437C371.853 290.539 372.573 294.797 373.329 299.899C374.313 306.55 374.39 309.286 373.601 309.562C372.995 309.773 361.047 311.54 347.049 313.487C325.234 316.523 321.27 317.337 319.299 319.189C316.313 321.994 316.339 322.743 320.451 351.97C322.344 365.428 323.777 376.556 323.636 376.698C323.494 376.839 319.203 377.573 314.101 378.329C307.454 379.312 304.721 379.39 304.465 378.601C304.269 377.995 302.667 366.7 300.907 353.5C299.146 340.3 297.126 328.054 296.419 326.286C295.551 324.117 294.22 322.842 292.329 322.368C289.995 321.782 246.808 326.909 239.383 328.653C237.437 329.11 237.174 328.534 236.133 321.534C235.944 320.262 235.748 319.127 235.573 318.111L235.572 318.105L235.572 318.103C235 314.783 234.648 312.733 235.442 311.337C236.723 309.085 240.987 308.529 252.125 307.078L252.127 307.078L252.14 307.076L252.151 307.075L252.166 307.073C254.273 306.799 256.625 306.492 259.25 306.136C272.587 304.326 284.966 302.394 286.758 301.842C290.57 300.669 292 298.448 292 293.699C292 290.441 286.526 248.915 285.494 244.337Z" fill="white"/>
</svg>
