<svg width="18" height="15" viewBox="0 0 18 15" fill="none" xmlns="http://www.w3.org/2000/svg">
<path d="M17.5877 0.434078C17.4686 0.296534 17.3269 0.187361 17.1709 0.112859C17.0148 0.038357 16.8474 0 16.6783 0C16.5092 0 16.3418 0.038357 16.1858 0.112859C16.0297 0.187361 15.888 0.296534 15.769 0.434078L6.22709 11.3815L2.21822 6.7736C2.0946 6.63677 1.94867 6.52918 1.78875 6.45698C1.62884 6.38477 1.45808 6.34936 1.28622 6.35277C1.11437 6.35618 0.944779 6.39833 0.787141 6.47683C0.629504 6.55533 0.486905 6.66864 0.367486 6.81028C0.248068 6.95193 0.154168 7.11913 0.0911484 7.30236C0.0281286 7.48558 -0.00277745 7.68123 0.000195856 7.87814C0.00316916 8.07505 0.0399634 8.26935 0.108477 8.44997C0.176991 8.63058 0.275883 8.79397 0.399506 8.93079L5.31773 14.5659C5.4368 14.7035 5.57845 14.8126 5.73453 14.8871C5.8906 14.9616 6.05801 15 6.22709 15C6.39617 15 6.56357 14.9616 6.71965 14.8871C6.87573 14.8126 7.01738 14.7035 7.13645 14.5659L17.5877 2.59128C17.7177 2.45386 17.8214 2.28708 17.8924 2.10144C17.9634 1.9158 18 1.71534 18 1.51268C18 1.31002 17.9634 1.10955 17.8924 0.923914C17.8214 0.738279 17.7177 0.571497 17.5877 0.434078Z" fill="#4C89C1"/>
</svg>
