<svg width="86" height="85" viewBox="0 0 86 85" fill="none" xmlns="http://www.w3.org/2000/svg">
<g clip-path="url(#clip0_588_581)">
<path d="M57.54 50.9997C71.6 50.9997 83.0393 39.5604 83.0393 25.5005C83.0393 11.4405 71.6 0.0012207 57.54 0.0012207C43.4801 0.0012207 32.0408 11.4405 32.0408 25.5005C32.0408 39.5604 43.4801 50.9997 57.54 50.9997ZM57.54 2.83436C70.0375 2.83436 80.206 13.0029 80.206 25.5003C80.206 37.9978 70.0375 48.1663 57.54 48.1663C45.0426 48.1663 34.8741 37.9978 34.8741 25.5003C34.8741 13.0029 45.0426 2.83436 57.54 2.83436Z" fill="white"/>
<path d="M57.54 32.5835C55.9775 32.5835 54.7067 31.3128 54.7067 29.7502C54.7067 28.9683 54.0735 28.3336 53.2901 28.3336C52.5067 28.3336 51.8735 28.9683 51.8735 29.7502C51.8735 32.3823 53.6854 34.5823 56.1234 35.2156V35.4168C56.1234 36.1987 56.7566 36.8334 57.54 36.8334C58.3234 36.8334 58.9565 36.1987 58.9565 35.4168V35.2156C61.3946 34.5824 63.2064 32.3823 63.2064 29.7502C63.2064 26.625 60.665 24.0837 57.54 24.0837C55.9775 24.0837 54.7067 22.8131 54.7067 21.2504C54.7067 19.6879 55.9773 18.4171 57.54 18.4171C59.1025 18.4171 60.3733 19.6878 60.3733 21.2504C60.3733 22.0323 61.0064 22.667 61.7899 22.667C62.5733 22.667 63.2064 22.0323 63.2064 21.2504C63.2064 18.6183 61.3946 16.4183 58.9565 15.785V15.5838C58.9565 14.8019 58.3234 14.1672 57.54 14.1672C56.7566 14.1672 56.1234 14.8019 56.1234 15.5838V15.785C53.6854 16.4182 51.8735 18.6183 51.8735 21.2504C51.8735 24.3756 54.415 26.9169 57.54 26.9169C59.1025 26.9169 60.3733 28.1875 60.3733 29.7502C60.3733 31.3128 59.1026 32.5835 57.54 32.5835Z" fill="white"/>
<path d="M57.5399 45.3332C68.4762 45.3332 77.3727 36.4368 77.3727 25.5004C77.3727 14.5639 68.4764 5.66772 57.5399 5.66772C46.6035 5.66772 37.7073 14.5641 37.7073 25.5005C37.7073 36.437 46.6036 45.3332 57.5399 45.3332ZM57.5399 8.50103C66.9137 8.50103 74.5394 16.1267 74.5394 25.5005C74.5394 34.8743 66.9137 42.5 57.5399 42.5C48.1661 42.5 40.5404 34.8743 40.5404 25.5005C40.5404 16.1267 48.1661 8.50103 57.5399 8.50103Z" fill="white"/>
<path d="M7.95813 75.7907C7.95813 74.6192 7.00473 73.6658 5.83319 73.6658C4.66165 73.6658 3.70825 74.6192 3.70825 75.7907C3.70825 76.9622 4.66165 77.9156 5.83319 77.9156C7.00473 77.9156 7.95813 76.9622 7.95813 75.7907Z" fill="white"/>
<path d="M85.1131 59.4995C83.5506 56.7923 80.0727 55.8658 77.4605 57.3788L61.1566 65.3148C58.6223 66.5826 56.0639 66.5826 50.4569 66.5826C44.976 66.5826 36.6079 65.1986 36.5229 65.1858C35.7523 65.0568 35.0213 65.5783 34.8938 66.3489C34.7649 67.121 35.2863 67.852 36.0582 67.9795C36.4095 68.0389 44.7393 69.4159 50.4569 69.4159C56.3386 69.4159 59.2909 69.4159 62.409 67.8563L78.7894 59.8793C79.4438 59.5011 80.206 59.4005 80.9399 59.5959C81.6695 59.7928 82.2814 60.2618 82.6583 60.9162C83.038 61.5721 83.1386 62.3356 82.943 63.0667C82.7474 63.7978 82.2786 64.4082 81.583 64.8106L62.4289 76.7315C62.3892 76.7584 58.3022 79.3324 49.0404 79.3324C41.0097 79.3324 28.6029 72.4958 28.4242 72.398C28.2953 72.3357 25.2241 70.8327 19.2913 70.8327C18.5079 70.8327 17.8748 71.4673 17.8748 72.2492C17.8748 73.0312 18.5079 73.6658 19.2913 73.6658C24.4436 73.6658 27.0983 74.9054 27.104 74.9054V74.9039C27.6395 75.2014 40.2757 82.1656 49.0404 82.1656C59.2685 82.1656 63.8044 79.219 63.9547 79.1184L83.0394 67.24C84.3498 66.4835 85.2876 65.261 85.6787 63.8005C86.0721 62.3369 85.8696 60.8098 85.1131 59.4995Z" fill="white"/>
<path d="M19.2911 53.8328H30.6241C32.2773 53.8328 35.0865 55.9408 37.5656 57.7993C40.6736 60.1311 43.6103 62.3326 46.2069 62.3326H54.7067C56.8585 62.3326 57.9266 63.3085 57.955 63.3341C58.2312 63.6103 58.594 63.7491 58.9565 63.7491C59.3193 63.7491 59.6818 63.6103 59.9581 63.3341C60.5119 62.7801 60.5119 61.8848 59.9581 61.331C59.7712 61.1441 58.0315 59.4993 54.7067 59.4993H46.2069C44.5538 59.4993 41.7445 57.3913 39.2655 55.5328C36.1574 53.201 33.2207 50.9995 30.6241 50.9995H19.2911C18.5077 50.9995 17.8745 51.6342 17.8745 52.4161C17.8745 53.198 18.5077 53.8328 19.2911 53.8328Z" fill="white"/>
<path d="M10.7913 45.333H2.29157C1.50817 45.333 0.875 45.9677 0.875 46.7496C0.875 47.5315 1.50817 48.1661 2.29157 48.1661H10.7913C11.5732 48.1661 12.2079 48.8021 12.2079 49.5827V80.7484C12.2079 81.529 11.5732 82.165 10.7913 82.165H2.29157C1.50817 82.165 0.875 82.7996 0.875 83.5815C0.875 84.3635 1.50817 84.9981 2.29157 84.9981H10.7913C13.1344 84.9981 15.0412 83.0913 15.0412 80.7482V49.5829C15.0412 47.2398 13.1344 45.333 10.7913 45.333Z" fill="white"/>
</g>
<defs>
<clipPath id="clip0_588_581">
<rect width="85" height="85" fill="white" transform="translate(0.875)"/>
</clipPath>
</defs>
</svg>
