<svg width="83" height="85" viewBox="0 0 83 85" fill="none" xmlns="http://www.w3.org/2000/svg">
<g clip-path="url(#clip0_587_502)">
<path d="M42.2455 16.207C43.1268 16.207 43.8412 15.4664 43.8412 14.5529C43.8412 13.6395 43.1268 12.8989 42.2455 12.8989C41.3643 12.8989 40.6499 13.6395 40.6499 14.5529C40.6499 15.4664 41.3643 16.207 42.2455 16.207Z" fill="white"/>
<path d="M79.4438 82.2283H70.3568V79.3885C70.3568 72.8854 68.6838 67.8662 65.3843 64.4704C61.1785 60.142 55.9001 60.1326 55.6855 60.1328H48.9878V55.9319C48.9878 55.8587 48.9807 55.7872 48.9701 55.717C53.2586 53.8802 55.9689 50.8163 57.6195 48.1598C60.1924 44.0187 60.7728 40.0335 60.7961 39.8661C60.8054 39.8001 60.8101 39.7338 60.8101 39.667V39.3703C61.7491 39.1302 62.5659 38.628 63.2146 37.8835C65.1076 35.711 64.9975 32.2834 64.8625 30.9108C64.7597 29.8658 64.3037 28.989 63.5437 28.375C63.0009 27.9365 62.365 27.6845 61.7515 27.544V13.8437C61.7515 9.28409 59.933 6.23624 56.1923 4.52605C54.6755 3.83273 55.075 2.32378 55.2293 1.88916C55.4598 1.2766 55.2431 0.580326 54.7108 0.222766C54.1788 -0.134609 53.477 -0.0553361 53.0317 0.412725C50.9134 2.63976 48.6721 2.581 44.6038 2.47438C41.7685 2.39991 38.2405 2.30733 33.5954 2.99639C27.2161 3.94231 24.3865 8.02847 23.1362 11.2897C21.8835 14.5575 21.9598 17.6089 21.9773 18.0309V27.1055C21.9773 27.2528 21.9999 27.3945 22.0409 27.5278C21.4049 27.6647 20.7396 27.9188 20.1751 28.3748C19.4151 28.9887 18.9589 29.8655 18.8561 30.9106C18.7211 32.2834 18.6111 35.711 20.5041 37.8833C21.16 38.6361 21.9884 39.1406 22.9406 39.3773V39.6669C22.9406 39.7334 22.9453 39.7999 22.9545 39.8657C22.9779 40.0333 23.5583 44.0186 26.1312 48.1596C27.7816 50.8159 30.4919 53.8798 34.7802 55.7166C34.7697 55.7868 34.7625 55.8583 34.7625 55.9317V60.1326H28.0746C27.8559 60.1341 22.5718 60.142 18.3664 64.4702C15.0669 67.866 13.3939 72.8854 13.3939 79.3883V82.2281H4.30621C3.56785 82.2281 2.96924 82.8486 2.96924 83.614C2.96924 84.3794 3.56785 84.9999 4.30621 84.9999H79.4438C80.1821 84.9999 80.7807 84.3794 80.7807 83.614C80.7807 82.8488 80.1821 82.2283 79.4438 82.2283ZM57.097 16.6147C57.0171 16.5471 56.6831 16.2825 55.9823 15.9391H59.0777V22.3641L57.5876 20.9104V17.6874C57.5874 17.2718 57.4074 16.878 57.097 16.6147ZM62.2023 31.1921C62.3613 32.8069 62.1895 34.9249 61.2302 36.0257C61.1017 36.1731 60.9614 36.2947 60.8101 36.3967V30.189C61.2245 30.2386 61.6392 30.3489 61.9028 30.5638C62.0306 30.6678 62.1661 30.8238 62.2023 31.1921ZM33.9739 5.74027C38.3972 5.08428 41.8011 5.1739 44.5358 5.24542C47.7442 5.32968 50.2938 5.39657 52.5905 4.17662C52.9076 5.31564 53.6651 6.40014 55.1133 7.06223C57.7067 8.24799 58.9114 10.0947 59.0608 13.1674H49.504C48.873 9.60765 45.8594 6.90109 42.2455 6.90109C38.6317 6.90109 35.6184 9.60765 34.9872 13.1674H25.3114C26.2619 10.1012 28.5415 6.54594 33.9739 5.74027ZM24.6511 22.4264V17.9982C24.6511 17.9744 24.6504 17.9472 24.6491 17.9234C24.6434 17.8105 24.6131 17.0417 24.7374 15.9389H27.8099C27.1124 16.2808 26.7776 16.5449 26.6956 16.6145C26.3852 16.8778 26.2052 17.2716 26.2052 17.6872V20.91L24.6511 22.4264ZM46.9536 14.5532C46.9536 17.2443 44.8416 19.4336 42.2455 19.4336C39.6495 19.4336 37.5376 17.2443 37.5376 14.5532C37.5376 11.8622 39.6496 9.67287 42.2455 9.67287C44.8416 9.67287 46.9536 11.8622 46.9536 14.5532ZM22.4882 36.0257C21.5291 34.9249 21.3571 32.8069 21.516 31.1921C21.5521 30.8238 21.6876 30.6678 21.8154 30.5636C22.086 30.3431 22.5153 30.2321 22.9403 30.1846V36.4172C22.7766 36.3115 22.6256 36.1833 22.4882 36.0257ZM28.4322 46.7445C26.3403 43.4163 25.7107 40.1214 25.6142 39.5538V25.293L28.4584 22.5184C28.7269 22.2564 28.8791 21.8913 28.8791 21.5091V18.4816C29.7045 18.0664 31.6108 17.3154 35.2089 16.866C36.1569 19.9582 38.9524 22.2052 42.2453 22.2052C45.5065 22.2052 48.2785 20.0011 49.2527 16.9553C52.4211 17.4091 54.1407 18.0924 54.9133 18.4814V21.5091C54.9133 21.8913 55.0655 22.2564 55.334 22.5184L58.1359 25.2516V39.5534C58.0382 40.1279 57.4077 43.4195 55.3179 46.7443C52.3215 51.5114 47.8403 54.133 41.9991 54.5365H41.7508C35.9097 54.1332 31.4285 51.5116 28.4322 46.7445ZM41.6205 57.3056C41.6494 57.3074 41.6781 57.3085 41.707 57.3085H42.0432C42.0721 57.3085 42.1008 57.3076 42.1296 57.3056C43.6447 57.2037 45.0352 56.967 46.314 56.6278V61.5188C46.314 62.0811 46.6377 62.5644 47.1021 62.7815L41.5448 68.7166L36.5384 62.8266C37.0609 62.6381 37.4365 62.1246 37.4365 61.5187V56.6276C38.715 56.9668 40.1055 57.2037 41.6205 57.3056ZM16.0673 79.3887C16.0673 63.0949 27.5701 62.9047 28.0646 62.9047H33.0407L40.4941 71.6734C40.7404 71.9633 41.0923 72.1333 41.4651 72.1427C41.4759 72.1429 41.4866 72.1431 41.4973 72.1431C41.8583 72.1431 42.2045 71.9917 42.4566 71.7225L50.7132 62.9049H55.6953C55.7447 62.9029 60.0763 62.9136 63.5006 66.4376C66.2758 69.2939 67.683 73.6515 67.683 79.3889V82.2287H35.1315V74.4372C35.1315 73.6718 34.5329 73.0513 33.7946 73.0513H21.9092C21.1708 73.0513 20.5722 73.6718 20.5722 74.4372V82.2283H16.0673V79.3887ZM32.4576 77.3642H23.2462V75.8231H32.4576V77.3642ZM23.2462 80.136H32.4576V82.2283H23.2462V80.136Z" fill="white"/>
<path d="M32.3849 29.8C33.2662 29.8 33.9806 29.0594 33.9806 28.146C33.9806 27.2325 33.2662 26.4919 32.3849 26.4919C31.5037 26.4919 30.7893 27.2325 30.7893 28.146C30.7893 29.0594 31.5037 29.8 32.3849 29.8Z" fill="white"/>
<path d="M51.3654 29.8C52.2467 29.8 52.9611 29.0594 52.9611 28.146C52.9611 27.2325 52.2467 26.4919 51.3654 26.4919C50.4842 26.4919 49.7698 27.2325 49.7698 28.146C49.7698 29.0594 50.4842 29.8 51.3654 29.8Z" fill="white"/>
<path d="M41.5303 37.8893H42.2198C43.9429 37.8893 45.349 36.4731 45.4216 34.7051C45.4262 34.6585 45.4285 34.611 45.4285 34.5631V26.4921C45.4285 25.7267 44.8299 25.1062 44.0916 25.1062C43.3532 25.1062 42.7546 25.7267 42.7546 26.4921V34.5631C42.7546 34.8688 42.5146 35.1175 42.2198 35.1175H41.5303C41.2354 35.1175 40.9955 34.8688 40.9955 34.5631C40.9955 33.7978 40.3969 33.1773 39.6585 33.1773C38.9201 33.1773 38.3215 33.7978 38.3215 34.5631C38.3215 36.3971 39.761 37.8893 41.5303 37.8893Z" fill="white"/>
<path d="M50.1632 45.2831C50.6269 44.6872 50.5367 43.8148 49.9619 43.3344C49.387 42.8537 48.5453 42.9474 48.082 43.543C48.0677 43.5615 46.4617 45.3796 42.2044 45.3796C37.7819 45.3796 35.626 43.4772 35.5206 43.3817C34.9749 42.8737 34.135 42.9162 33.6396 43.4792C33.142 44.0449 33.1811 44.9215 33.7267 45.437C33.844 45.5479 36.6624 48.1513 42.2044 48.1513C47.7709 48.1513 49.9348 45.5767 50.1632 45.2831Z" fill="white"/>
</g>
<defs>
<clipPath id="clip0_587_502">
<rect width="82" height="85" fill="white" transform="translate(0.875)"/>
</clipPath>
</defs>
</svg>
