<svg width="86" height="85" viewBox="0 0 86 85" fill="none" xmlns="http://www.w3.org/2000/svg">
<g clip-path="url(#clip0_588_633)">
<path d="M74.6072 13.4661V13.0606C74.6072 12.1464 74.252 11.2899 73.6098 10.6511C72.9655 10.0066 72.109 9.65161 71.1982 9.65161C69.3183 9.65161 67.7891 11.181 67.7891 13.0606V13.4661H60.7472V13.0606C60.7472 12.1464 60.392 11.2899 59.7498 10.6511C59.1055 10.0066 58.249 9.65161 57.3382 9.65161C55.4583 9.65161 53.9291 11.181 53.9291 13.0606V13.4661H46.8872V13.0606C46.8872 12.1466 46.5322 11.2901 45.8898 10.6509C45.2451 10.0064 44.3888 9.65161 43.4782 9.65161C41.5985 9.65161 40.0691 11.181 40.0691 13.0606V13.4661H33.027V13.0606C33.027 12.1466 32.6719 11.2899 32.0296 10.6509C31.3851 10.0064 30.5288 9.65161 29.618 9.65161C27.7384 9.65161 26.209 11.181 26.209 13.0606V13.4661H19.167V13.0606C19.167 12.1466 18.8119 11.2899 18.1696 10.6509C17.5251 10.0064 16.6688 9.65161 15.7582 9.65161C13.8786 9.65161 12.3492 11.181 12.3492 13.0606V13.4661H5.5012V14.7419L0.625 72.3084H5.5012V75.3486H85.6248V13.4661H74.6072ZM70.4537 13.0606C70.4537 12.6503 70.7876 12.3164 71.198 12.3164C71.3969 12.3164 71.584 12.3941 71.7277 12.538C71.8661 12.6756 71.9422 12.8612 71.9422 13.0608V13.4663H70.4537V13.0606V13.0606ZM56.5937 13.0606C56.5937 12.6503 56.9276 12.3164 57.338 12.3164C57.5929 12.3164 57.7653 12.4354 57.8677 12.538C58.0061 12.6756 58.0822 12.8612 58.0822 13.0608V13.4663H56.5937V13.0606V13.0606ZM42.7337 13.0606C42.7337 12.6503 43.0676 12.3164 43.478 12.3164C43.733 12.3164 43.9055 12.4354 44.0077 12.5376C44.1461 12.6752 44.2222 12.861 44.2222 13.0606V13.4661H42.7337V13.0606ZM28.8738 13.0606C28.8738 12.6503 29.2076 12.3164 29.618 12.3164C29.8729 12.3164 30.0455 12.4354 30.1477 12.5378C30.2861 12.6754 30.3622 12.8612 30.3622 13.0608V13.4663H28.8738V13.0606ZM15.0138 13.0606C15.0138 12.6503 15.3476 12.3164 15.758 12.3164C16.0129 12.3164 16.1855 12.4354 16.2877 12.5378C16.4261 12.6754 16.5022 12.8612 16.5022 13.0608V13.4663H15.0138V13.0606ZM3.52506 69.6436L5.5012 46.3145V69.6436H3.52506ZM82.9602 72.6838H8.166V16.1309H16.5021V17.8615C15.0682 18.4024 14.0436 19.7849 14.0436 21.4058C14.0436 23.496 15.7441 25.1967 17.8345 25.1967C19.9248 25.1967 21.6253 23.4962 21.6253 21.4058C21.6253 19.7851 20.6009 18.4024 19.1669 17.8615V16.1309H30.362V17.8615C28.9282 18.4024 27.9036 19.7849 27.9036 21.4058C27.9036 23.496 29.6041 25.1967 31.6944 25.1967C33.7846 25.1967 35.4851 23.4962 35.4851 21.4058C35.4851 19.7851 34.4607 18.4026 33.0268 17.8617V16.1311H44.222V17.8617C42.7882 18.4026 41.7636 19.7851 41.7636 21.406C41.7636 23.4962 43.4641 25.1969 45.5544 25.1969C47.6448 25.1969 49.3451 23.4964 49.3451 21.406C49.3451 19.7853 48.3207 18.4028 46.8868 17.8617V16.1311H58.082V17.8617C56.6482 18.4026 55.6236 19.7851 55.6236 21.406C55.6236 23.4962 57.3243 25.1969 59.4144 25.1969C61.5046 25.1969 63.2051 23.4964 63.2051 21.406C63.2051 19.7853 62.1807 18.4028 60.7468 17.8617V16.1311H71.942V17.8617C70.5082 18.4026 69.4836 19.7851 69.4836 21.406C69.4836 23.4962 71.1843 25.1969 73.2744 25.1969C75.3646 25.1969 77.0651 23.4964 77.0651 21.406C77.0651 19.7853 76.0407 18.4028 74.6068 17.8617V16.1311H82.9598V72.6838H82.9602ZM18.9605 21.4058C18.9605 22.0267 18.4554 22.5319 17.8345 22.5319C17.2136 22.5319 16.7084 22.0267 16.7084 21.4058C16.7084 20.7849 17.2136 20.28 17.8345 20.28C18.4554 20.28 18.9605 20.7849 18.9605 21.4058ZM32.8205 21.4058C32.8205 22.0267 32.3155 22.5319 31.6946 22.5319C31.0737 22.5319 30.5686 22.0267 30.5686 21.4058C30.5686 20.7849 31.0737 20.28 31.6946 20.28C32.3155 20.28 32.8205 20.7849 32.8205 21.4058ZM46.6805 21.4058C46.6805 22.0267 46.1755 22.5319 45.5546 22.5319C44.9337 22.5319 44.4288 22.0267 44.4288 21.4058C44.4288 20.7849 44.9337 20.28 45.5546 20.28C46.1755 20.28 46.6805 20.7849 46.6805 21.4058ZM60.5405 21.4058C60.5405 22.0267 60.0355 22.5319 59.4146 22.5319C58.7937 22.5319 58.2886 22.0267 58.2886 21.4058C58.2886 20.7849 58.7937 20.28 59.4146 20.28C60.0355 20.28 60.5405 20.7849 60.5405 21.4058ZM74.4007 21.4058C74.4007 22.0267 73.8957 22.5319 73.2748 22.5319C72.6539 22.5319 72.1487 22.0267 72.1487 21.4058C72.1487 20.7849 72.6539 20.28 73.2748 20.28C73.8957 20.28 74.4007 20.7849 74.4007 21.4058Z" fill="white"/>
<path d="M13.2339 67.5499H77.8921V30.5894H13.2339V67.5499ZM15.8987 33.2542H75.2273V64.8851H15.8987V33.2542Z" fill="white"/>
<path d="M22.5318 36.5068H18.3442V40.6944H22.5318V36.5068Z" fill="white"/>
<path d="M30.3833 36.5068H26.1958V40.6944H30.3833V36.5068Z" fill="white"/>
<path d="M38.2349 36.5068H34.0474V40.6944H38.2349V36.5068Z" fill="white"/>
<path d="M46.0865 36.5068H41.8989V40.6944H46.0865V36.5068Z" fill="white"/>
<path d="M53.9385 36.5068H49.751V40.6944H53.9385V36.5068Z" fill="white"/>
<path d="M72.7823 36.5068H68.5947V40.6944H72.7823V36.5068Z" fill="white"/>
<path d="M65.3589 36.5068H61.1714V40.6944H65.3589V36.5068Z" fill="white"/>
<path d="M22.5318 43.4861H18.3442V47.6736H22.5318V43.4861Z" fill="white"/>
<path d="M30.3833 43.4861H26.1958V47.6736H30.3833V43.4861Z" fill="white"/>
<path d="M38.2349 43.4861H34.0474V47.6736H38.2349V43.4861Z" fill="white"/>
<path d="M46.0865 43.4861H41.8989V47.6736H46.0865V43.4861Z" fill="white"/>
<path d="M53.9385 43.4861H49.751V47.6736H53.9385V43.4861Z" fill="white"/>
<path d="M72.7823 43.4861H68.5947V47.6736H72.7823V43.4861Z" fill="white"/>
<path d="M65.3589 43.4861H61.1714V47.6736H65.3589V43.4861Z" fill="white"/>
<path d="M22.5318 50.4653H18.3442V54.6529H22.5318V50.4653Z" fill="white"/>
<path d="M30.3833 50.4653H26.1958V54.6529H30.3833V50.4653Z" fill="white"/>
<path d="M38.2349 50.4653H34.0474V54.6529H38.2349V50.4653Z" fill="white"/>
<path d="M46.0865 50.4653H41.8989V54.6529H46.0865V50.4653Z" fill="white"/>
<path d="M53.9385 50.4653H49.751V54.6529H53.9385V50.4653Z" fill="white"/>
<path d="M72.7823 50.4653H68.5947V54.6529H72.7823V50.4653Z" fill="white"/>
<path d="M65.3589 50.4653H61.1714V54.6529H65.3589V50.4653Z" fill="white"/>
<path d="M22.5318 57.4446H18.3442V61.6321H22.5318V57.4446Z" fill="white"/>
<path d="M30.3833 57.4446H26.1958V61.6321H30.3833V57.4446Z" fill="white"/>
<path d="M38.2349 57.4446H34.0474V61.6321H38.2349V57.4446Z" fill="white"/>
<path d="M46.0865 57.4446H41.8989V61.6321H46.0865V57.4446Z" fill="white"/>
<path d="M53.9385 57.4446H49.751V61.6321H53.9385V57.4446Z" fill="white"/>
<path d="M72.7823 57.4446H68.5947V61.6321H72.7823V57.4446Z" fill="white"/>
<path d="M65.3589 57.4446H61.1714V61.6321H65.3589V57.4446Z" fill="white"/>
</g>
<defs>
<clipPath id="clip0_588_633">
<rect width="85" height="85" fill="white" transform="translate(0.625)"/>
</clipPath>
</defs>
</svg>
